<?xml version="1.0" encoding="UTF-8" standalone="no"?>
<!-- Created with Inkscape (http://www.inkscape.org/) -->

<svg
   xmlns:dc="http://purl.org/dc/elements/1.1/"
   xmlns:cc="http://creativecommons.org/ns#"
   xmlns:rdf="http://www.w3.org/1999/02/22-rdf-syntax-ns#"
   xmlns:svg="http://www.w3.org/2000/svg"
   xmlns="http://www.w3.org/2000/svg"
   xmlns:sodipodi="http://sodipodi.sourceforge.net/DTD/sodipodi-0.dtd"
   xmlns:inkscape="http://www.inkscape.org/namespaces/inkscape"
   width="126mm"
   height="76mm"
   viewBox="0 0 126 76"
   version="1.1"
   id="svg215"
   sodipodi:docname="before.svg"
   inkscape:version="0.92.3 (3ce5693, 2018-03-11)">
  <defs
     id="defs209" />
  <sodipodi:namedview
     id="base"
     pagecolor="#ffffff"
     bordercolor="#666666"
     borderopacity="1.0"
     inkscape:pageopacity="0.0"
     inkscape:pageshadow="2"
     inkscape:zoom="0.91733827"
     inkscape:cx="292.91339"
     inkscape:cy="143.62205"
     inkscape:document-units="mm"
     inkscape:current-layer="layer1"
     showgrid="false"
     inkscape:window-width="1299"
     inkscape:window-height="713"
     inkscape:window-x="67"
     inkscape:window-y="27"
     inkscape:window-maximized="1" />
  <metadata
     id="metadata212">
    <rdf:RDF>
      <cc:Work
         rdf:about="">
        <dc:format>image/svg+xml</dc:format>
        <dc:type
           rdf:resource="http://purl.org/dc/dcmitype/StillImage" />
        <dc:title></dc:title>
      </cc:Work>
    </rdf:RDF>
  </metadata>
  <g
     inkscape:label="Capa 1"
     inkscape:groupmode="layer"
     id="layer1"
     transform="translate(0,-221)">
    <g
       id="Tablet+"
       transform="matrix(0.21748631,0,0,0.21748631,30.407821,257.57015)"
       style="fill:none;fill-rule:evenodd;stroke:none;stroke-width:1">
      <g
         transform="translate(-177,-351)"
         id="00---App---Tablet+">
        <g
           transform="translate(175,348)"
           id="Group-4">
          <g
             id="Tarjetas-molonas">
            <g
               id="Group-2">
              <g
                 transform="rotate(-10,124.08092,6.9662634)"
                 id="Group">
                <path
                   id="Path"
                   d="m 101.2805,2.2849579 c 2.86843,0 5.30659,1.0039507 7.31449,3.0118488 2.0079,2.0078982 3.01185,4.4460637 3.01185,7.3144903 v 61.958034 c 0,2.868426 -1.00395,5.306591 -3.01185,7.31449 -2.0079,2.007898 -4.44606,3.011848 -7.31449,3.011848 H 11.785563 c -2.8684263,0 -5.3065918,-1.00395 -7.31449,-3.011848 C 2.4631749,79.875922 1.4592242,77.437757 1.4592242,74.569331 V 12.611297 c 0,-2.8684266 1.0039507,-5.3065921 3.0118488,-7.3144903 2.0078982,-2.0078981 4.4460637,-3.0118488 7.31449,-3.0118488 z"
                   inkscape:connector-curvature="0"
                   style="fill:#a2deaf" />
                <path
                   id="Path-Copy"
                   d="m 100.13311,0.64631295 c 2.86843,0 5.30659,1.00395075 7.31449,3.01184885 2.0079,2.0078982 3.01185,4.4460637 3.01185,7.3144902 v 61.958034 c 0,2.868426 -1.00395,5.306592 -3.01185,7.31449 -2.0079,2.007898 -4.44606,3.011848 -7.31449,3.011848 H 10.638172 c -2.8684268,0 -5.3065923,-1.00395 -7.3144905,-3.011848 C 1.3157834,78.237278 0.31183267,75.799112 0.31183267,72.930686 V 10.972652 c 0,-2.8684265 1.00395073,-5.306592 3.01184883,-7.3144902 C 5.3315797,1.6502637 7.7697452,0.64631295 10.638172,0.64631295 Z"
                   inkscape:connector-curvature="0"
                   style="fill:#114e4e" />
                <path
                   id="path225"
                   d="M 103.57522,72.930686 V 10.972652 c 0,-1.0039508 -0.3227,-1.8286226 -0.96809,-2.4740188 -0.6454,-0.6453962 -1.47007,-0.9680943 -2.47402,-0.9680943 H 10.638172 c -1.0039511,0 -1.8286229,0.3226981 -2.4740191,0.9680943 -0.6453962,0.6453962 -0.9680943,1.470068 -0.9680943,2.4740188 v 61.958034 c 0,1.00395 0.3226981,1.828622 0.9680943,2.474018 0.6453962,0.645396 1.470068,0.968095 2.4740191,0.968095 h 89.494938 c 1.00395,0 1.82862,-0.322699 2.47402,-0.968095 0.64539,-0.645396 0.96809,-1.470068 0.96809,-2.474018 z"
                   inkscape:connector-curvature="0"
                   style="fill:#ffffff" />
                <path
                   id="Combined-Shape"
                   d="m 71.735677,55.720121 c -0.717106,0 -1.326649,-0.250989 -1.828623,-0.752963 -0.501973,-0.501973 -0.752962,-1.111516 -0.752962,-1.828622 v -1.721057 c 0,-0.717105 0.250989,-1.326648 0.752962,-1.828622 0.501974,-0.501974 1.111517,-0.752962 1.828623,-0.752962 h 22.373734 c 0.717106,0 1.326649,0.250988 1.828623,0.752962 0.501974,0.501974 0.752962,1.111517 0.752962,1.828622 v 1.721057 c 0,0.717106 -0.250988,1.326649 -0.752962,1.828622 -0.501974,0.501974 -1.111517,0.752963 -1.828623,0.752963 z m 0,-13.768452 c -0.717106,0 -1.326649,-0.250989 -1.828623,-0.752963 -0.501973,-0.501973 -0.752962,-1.111516 -0.752962,-1.828622 v -1.721056 c 0,-0.717106 0.250989,-1.326649 0.752962,-1.828623 0.501974,-0.501974 1.111517,-0.752962 1.828623,-0.752962 h 22.373734 c 0.717106,0 1.326649,0.250988 1.828623,0.752962 0.501974,0.501974 0.752962,1.111517 0.752962,1.828623 v 1.721056 c 0,0.717106 -0.250988,1.326649 -0.752962,1.828622 -0.501974,0.501974 -1.111517,0.752963 -1.828623,0.752963 z m 0,-13.768452 c -0.717106,0 -1.326649,-0.250989 -1.828623,-0.752962 -0.501973,-0.501974 -0.752962,-1.111517 -0.752962,-1.828623 v -1.721056 c 0,-0.717106 0.250989,-1.326649 0.752962,-1.828623 0.501974,-0.501974 1.111517,-0.752962 1.828623,-0.752962 h 22.373734 c 0.717106,0 1.326649,0.250988 1.828623,0.752962 0.501974,0.501974 0.752962,1.111517 0.752962,1.828623 v 1.721056 c 0,0.717106 -0.250988,1.326649 -0.752962,1.828623 -0.501974,0.501973 -1.111517,0.752962 -1.828623,0.752962 z"
                   inkscape:connector-curvature="0"
                   style="fill:#e17334" />
                <path
                   id="path228"
                   d="m 51.513263,42.381933 c 3.728955,1.14737 6.597385,3.370403 8.605283,6.669094 1.434215,2.581585 2.15132,5.234879 2.15132,7.959886 v 3.011849 c 0,2.581585 -0.932238,4.804615 -2.796717,6.669094 -1.864478,1.864479 -4.087509,2.796717 -6.669093,2.796717 H 23.546095 c -2.581584,0 -4.804615,-0.932238 -6.669094,-2.796717 -1.864479,-1.864479 -2.796716,-4.087509 -2.796716,-6.669094 v -3.011849 c 0,-2.725007 0.717105,-5.378301 2.15132,-7.959886 2.007898,-3.298691 4.876328,-5.521724 8.605283,-6.669094 -2.581585,-3.155272 -3.872377,-6.740804 -3.872377,-10.756603 0,-4.732906 1.6852,-8.784558 5.055603,-12.154962 3.370403,-3.370403 7.422056,-5.055603 12.154961,-5.055603 4.732906,0 8.784559,1.6852 12.154962,5.055603 3.370403,3.370404 5.055603,7.422056 5.055603,12.154962 0,4.015799 -1.290792,7.601331 -3.872377,10.756603 z M 38.175075,21.298991 c -2.868426,0 -5.306591,1.003951 -7.31449,3.011849 -2.007898,2.007898 -3.011849,4.446063 -3.011849,7.31449 0,2.868426 1.003951,5.306592 3.011849,7.31449 2.007899,2.007898 4.446064,3.011849 7.31449,3.011849 2.868427,0 5.306592,-1.003951 7.314491,-3.011849 2.007898,-2.007898 3.011848,-4.446064 3.011848,-7.31449 0,-2.868427 -1.00395,-5.306592 -3.011848,-7.31449 -2.007899,-2.007898 -4.446064,-3.011849 -7.314491,-3.011849 z M 55.38564,60.022762 v -3.011849 c 0,-1.864479 -0.573686,-3.549679 -1.721056,-5.055603 -1.14737,-1.505925 -2.653294,-2.545729 -4.517773,-3.119415 l -4.517774,-1.290793 c -2.007898,0.860529 -4.159218,1.290793 -6.453962,1.290793 -2.294743,0 -4.446063,-0.430264 -6.453961,-1.290793 l -4.517774,1.290793 c -1.864479,0.573686 -3.370403,1.61349 -4.517773,3.119415 -1.14737,1.505924 -1.721056,3.191124 -1.721056,5.055603 v 3.011849 c 0,0.717106 0.250988,1.326649 0.752962,1.828622 0.501973,0.501974 1.111516,0.752963 1.828622,0.752963 h 29.257961 c 0.717105,0 1.326648,-0.250989 1.828622,-0.752963 0.501974,-0.501973 0.752962,-1.111516 0.752962,-1.828622 z"
                   inkscape:connector-curvature="0"
                   style="fill:#a2deaf" />
              </g>
              <path
                 id="Awesome"
                 d="m 138.2257,53.372435 c -1.39566,0 -2.62155,-0.113159 -3.67772,-0.339482 -1.05617,-0.226322 -1.97088,-0.77326 -2.74415,-1.640829 -0.77326,-0.867569 -1.15989,-2.206623 -1.15989,-4.017202 0,-2.527266 0.76382,-5.922051 2.2915,-10.184456 1.52768,-4.262404 3.53626,-8.543605 6.0258,-12.84373 -1.88602,0.113161 -3.37595,0.39606 -4.46984,0.848704 -1.09389,0.452645 -1.81057,1.150462 -2.15005,2.093472 0.15088,0 0.31119,0.188599 0.48093,0.565803 0.16974,0.377204 0.25461,0.773262 0.25461,1.188187 0,0.678967 -0.30176,1.216474 -0.90528,1.612538 -0.60353,0.396065 -1.35793,0.594094 -2.26322,0.594094 -1.05617,0 -1.90486,-0.282899 -2.54611,-0.848705 -0.64125,-0.565806 -0.96187,-1.376782 -0.96187,-2.432953 0,-1.282494 0.49979,-2.451809 1.49938,-3.50798 0.99959,-1.056171 2.3858,-1.895437 4.15866,-2.517824 1.77285,-0.622386 3.73428,-0.933575 5.88435,-0.933575 0.79213,0 1.77284,0.05658 2.94217,0.169741 3.09308,-4.903651 6.36527,-8.911383 9.81669,-12.0233157 3.45141,-3.1119327 6.74247,-4.6678757 9.87326,-4.6678757 1.81058,0 3.30051,0.2640388 4.46985,0.7921244 l -8.88311,41.643109 h -8.14757 l 4.35669,-20.538653 c -1.39566,-0.641247 -2.67813,-1.112745 -3.84746,-1.414508 -1.16934,-0.301763 -2.41409,-0.509222 -3.7343,-0.622383 -2.15007,4.639608 -3.91347,9.382877 -5.29026,14.229948 -1.3768,4.847071 -2.06519,8.722783 -2.06519,11.627254 0,1.433375 0.26404,2.48953 0.79213,3.168497 z M 156.16166,8.5042487 c -1.62198,0.8675691 -3.30994,2.4800923 -5.06394,4.8376163 -1.754,2.357525 -3.46082,5.214802 -5.12052,8.571917 2.71587,0.528086 5.01678,1.188183 6.9028,1.980311 z m 13.12663,38.7575133 c -1.81058,0 -3.27222,-0.565798 -4.38497,-1.69741 -1.11276,-1.131611 -1.66912,-2.829004 -1.66912,-5.092228 0,-0.94301 0.15088,-2.168904 0.45264,-3.67772 l 3.84746,-18.16228 h 8.14756 l -4.07378,19.237306 c -0.11316,0.452645 -0.16974,0.924143 -0.16974,1.414508 0,1.659697 0.5658,2.489533 1.69741,2.489533 1.05617,0 1.96145,-0.443208 2.71586,-1.329637 0.7544,-0.886429 1.35792,-2.102894 1.81057,-3.64943 l 3.84746,-18.16228 h 8.14756 l -4.07378,19.237306 c -0.1886,0.94301 -0.2829,1.621967 -0.2829,2.036891 0,1.244773 0.64123,1.86715 1.92373,1.86715 1.73514,0 3.34766,-1.093875 4.83761,-3.281658 1.48996,-2.187782 2.68757,-4.790451 3.59285,-7.808082 0.90529,-3.017632 1.35793,-5.6203 1.35793,-7.808083 -0.0754,0.188602 -0.32062,0.330051 -0.73554,0.424352 -0.41493,0.0943 -0.77326,0.141451 -1.07503,0.141451 -0.64124,0 -1.14103,-0.301759 -1.49938,-0.905285 -0.35834,-0.603527 -0.53751,-1.263624 -0.53751,-1.980311 0,-0.90529 0.29233,-1.640826 0.877,-2.206632 0.58466,-0.565806 1.46165,-0.848705 2.63098,-0.848705 1.24477,0 2.15005,0.462068 2.71586,1.386218 0.5658,0.924149 0.8487,2.102894 0.8487,3.536269 0,3.394836 -0.58466,7.025369 -1.75399,10.89171 -1.16933,3.866341 -2.96102,7.157396 -5.37513,9.873264 -2.4141,2.715869 -5.41283,4.073783 -8.99627,4.073783 -1.8483,0 -3.35709,-0.396059 -4.52642,-1.188187 -1.16934,-0.792128 -1.92373,-1.980303 -2.26322,-3.56456 -2.11234,3.168514 -4.79045,4.752747 -8.0344,4.752747 z m 39.88912,0 c -2.79131,0 -4.9602,-0.726107 -6.50674,-2.178342 -1.54653,-1.452236 -2.31979,-3.724855 -2.31979,-6.817928 0,-2.602707 0.50922,-5.469414 1.52767,-8.600207 1.01845,-3.130793 2.67812,-5.837191 4.97907,-8.119275 2.30094,-2.282084 5.22423,-3.423108 8.76994,-3.423108 4.14925,0 6.22384,1.810551 6.22384,5.431709 0,2.112343 -0.60352,4.054914 -1.81057,5.827772 -1.20705,1.772859 -2.81015,3.196783 -4.80933,4.271814 -1.99918,1.075031 -4.13035,1.687978 -6.39357,1.83886 -0.0754,1.131612 -0.11316,1.886009 -0.11316,2.263212 0,1.8483 0.32061,3.102484 0.96186,3.762591 0.64125,0.660107 1.67854,0.990155 3.11192,0.990155 2.0369,0 3.78144,-0.471497 5.23368,-1.414507 1.45223,-0.94301 3.0459,-2.376364 4.78103,-4.300104 h 1.92373 c -4.18696,6.978273 -9.37344,10.467358 -15.55958,10.467358 z m 0.11316,-14.48456 c 1.39565,-0.07544 2.72528,-0.565798 3.98891,-1.471088 1.26363,-0.90529 2.28207,-2.055744 3.05534,-3.451399 0.77327,-1.395655 1.1599,-2.866728 1.1599,-4.413264 0,-1.546537 -0.4715,-2.319793 -1.41451,-2.319793 -1.35794,0 -2.68756,1.188175 -3.98892,3.56456 -1.30135,2.376385 -2.23491,5.073352 -2.80072,8.090984 z m 19.97285,14.48456 c -1.81058,0 -3.33823,-0.348909 -4.58301,-1.046736 -1.24477,-0.697827 -2.1689,-1.603103 -2.77243,-2.715855 -0.60353,-1.112752 -0.90529,-2.272637 -0.90529,-3.479689 0,-1.244773 0.29233,-2.329218 0.877,-3.253368 0.58466,-0.92415 1.29191,-1.593677 2.12176,-2.008601 1.4711,-2.640428 2.75357,-5.309106 3.84746,-8.006114 1.09389,-2.697008 2.13119,-5.610865 3.11192,-8.741658 l 8.37388,-1.131606 c 0.18861,4.82821 0.50923,10.052407 0.96187,15.672746 0.1886,2.263224 0.2829,3.904036 0.2829,4.922487 0,0.867569 -0.0754,1.584246 -0.22632,2.150052 1.77286,-1.018451 3.13077,-1.961447 4.07378,-2.829016 h 2.37638 c -2.41411,2.791309 -5.29968,5.148799 -8.65679,7.072539 -1.09389,1.169332 -2.44238,2.027458 -4.04549,2.574404 -1.60312,0.546946 -3.21564,0.820415 -4.83762,0.820415 z m -1.81057,-4.469845 c 1.39565,0 2.56497,-0.414918 3.50798,-1.244767 0.94301,-0.829848 1.41451,-2.168902 1.41451,-4.017202 0,-1.131612 -0.11316,-2.715845 -0.33949,-4.752746 -0.3772,-4.300125 -0.62238,-7.185692 -0.73554,-8.656788 -0.90529,2.979912 -2.43294,6.544436 -4.583,10.693679 0.86756,0.452645 1.30134,1.112742 1.30134,1.980311 0,0.716688 -0.23575,1.357925 -0.70725,1.923731 -0.47151,0.565806 -1.06559,0.848704 -1.78228,0.848704 -0.79213,0 -1.30135,-0.245179 -1.52767,-0.735544 0,1.357935 0.27347,2.35751 0.82041,2.998757 0.54695,0.641247 1.42394,0.961865 2.63099,0.961865 z m 25.23482,4.356684 c -2.79131,0 -4.99792,-0.716677 -6.6199,-2.150052 -1.62198,-1.433375 -2.43295,-3.696565 -2.43295,-6.789637 0,-2.564987 0.52808,-5.412834 1.58425,-8.543627 1.05617,-3.130793 2.75356,-5.837191 5.09222,-8.119275 2.33867,-2.282084 5.28082,-3.423108 8.82653,-3.423108 4.82821,0 7.24228,3.017586 7.24228,9.052849 v 0.05658 c 0.11316,0.03772 0.32062,0.05658 0.62239,0.05658 1.24477,0 2.67812,-0.330049 4.3001,-0.990156 1.62198,-0.660107 3.09305,-1.461653 4.41326,-2.404663 l 0.50923,1.527669 c -1.09389,1.169332 -2.51782,2.159477 -4.27182,2.970466 -1.75399,0.810988 -3.66828,1.386216 -5.7429,1.725699 -0.30176,3.432556 -1.07502,6.431283 -2.31979,8.99627 -1.24477,2.564987 -2.84787,4.545278 -4.80933,5.940932 -1.96146,1.395655 -4.09263,2.093472 -6.39357,2.093472 z m 2.26321,-5.092228 c 0.90529,0 1.81057,-0.518648 2.71586,-1.555959 0.90528,-1.03731 1.6974,-2.451804 2.37637,-4.243523 0.67897,-1.791719 1.16932,-3.78144 1.47109,-5.969223 -1.01845,-0.226322 -1.52767,-1.018438 -1.52767,-2.376373 0,-1.546536 0.58466,-2.564971 1.75399,-3.055337 -0.0754,-1.244772 -0.26404,-2.102899 -0.56581,-2.574404 -0.30176,-0.471504 -0.82984,-0.707254 -1.58424,-0.707254 -1.24478,0 -2.45181,0.905276 -3.62114,2.715855 -1.16934,1.810579 -2.11233,3.97947 -2.82902,6.506736 -0.71669,2.527267 -1.07503,4.752737 -1.07503,6.676477 0,1.810579 0.20746,3.027043 0.62239,3.64943 0.41492,0.622386 1.16932,0.933575 2.26321,0.933575 z m 48.71565,5.205389 c -2.30095,0 -3.98891,-0.612948 -5.06394,-1.83886 -1.07503,-1.225913 -1.61254,-2.744137 -1.61254,-4.554716 0,-0.792128 0.0943,-1.687974 0.2829,-2.687564 0.1886,-0.999591 0.38663,-1.970876 0.5941,-2.913886 0.20746,-0.94301 0.34891,-1.546527 0.42435,-1.81057 0.30176,-1.320214 0.58466,-2.621548 0.8487,-3.904042 0.26405,-1.282493 0.39607,-2.319788 0.39607,-3.111917 0,-1.92374 -0.67896,-2.885596 -2.0369,-2.885596 -0.98073,0 -1.84828,0.480928 -2.60269,1.442798 -0.75441,0.96187 -1.35793,2.216055 -1.81057,3.762591 l -3.84746,18.16228 h -8.14757 l 4.13037,-19.520208 c 0.11316,-0.452644 0.16974,-0.924142 0.16974,-1.414507 0,-1.659698 -0.5658,-2.489534 -1.69741,-2.489534 -1.05617,0 -1.97088,0.480928 -2.74415,1.442798 -0.77326,0.96187 -1.38621,2.234914 -1.83886,3.819171 l -3.84746,18.16228 h -8.14756 l 5.99751,-28.290156 h 8.14756 l -0.62238,2.942176 c 1.92374,-2.150062 4.22465,-3.225077 6.9028,-3.225077 3.3194,0 5.26197,1.621952 5.82777,4.865906 2.07462,-3.206233 4.69615,-4.809326 7.86466,-4.809326 1.92374,0 3.4514,0.528078 4.58301,1.584249 1.13161,1.056171 1.69741,2.659264 1.69741,4.809326 0,1.093892 -0.13202,2.310356 -0.39606,3.64943 -0.26405,1.339074 -0.64124,2.970457 -1.13161,4.894197 -0.30176,1.169332 -0.57523,2.310357 -0.82041,3.423109 -0.24519,1.112752 -0.36778,1.989738 -0.36778,2.630984 0,0.754408 0.16974,1.339066 0.50923,1.75399 0.33948,0.414924 0.92414,0.622383 1.75399,0.622383 1.13161,0 2.03688,-0.405488 2.71585,-1.216476 0.67897,-0.810989 1.35793,-2.065173 2.03689,-3.762591 h 2.37638 c -1.39566,4.149244 -3.00818,6.931081 -4.83762,8.345596 -1.82944,1.414515 -3.72486,2.121762 -5.68632,2.121762 z m 16.12539,0 c -2.75359,0 -4.90362,-0.726107 -6.45016,-2.178342 -1.54653,-1.452236 -2.31979,-3.724855 -2.31979,-6.817928 0,-2.602707 0.50922,-5.469414 1.52767,-8.600207 1.01845,-3.130793 2.67812,-5.837191 4.97906,-8.119275 2.30095,-2.282084 5.22424,-3.423108 8.76995,-3.423108 4.14925,0 6.22384,1.810551 6.22384,5.431709 0,2.112343 -0.60352,4.054914 -1.81057,5.827772 -1.20706,1.772859 -2.81015,3.196783 -4.80933,4.271814 -1.99918,1.075031 -4.13035,1.687978 -6.39357,1.83886 -0.0754,0.829849 -0.11317,1.395646 -0.11317,1.697409 0,3.130793 1.16932,4.696166 3.50798,4.696166 1.05618,0 2.18777,-0.282899 3.39482,-0.848704 1.20706,-0.565807 2.30093,-1.282483 3.28166,-2.150052 -1.01845,5.582618 -4.28121,8.373886 -9.78839,8.373886 z m 0.11316,-14.48456 c 1.43337,-0.03772 2.78186,-0.509218 4.04549,-1.414508 1.26363,-0.905289 2.28207,-2.065174 3.05534,-3.479689 0.77326,-1.414515 1.15989,-2.895018 1.15989,-4.441554 0,-1.546537 -0.4715,-2.319793 -1.4145,-2.319793 -1.32022,0 -2.63098,1.197605 -3.93234,3.59285 -1.30135,2.395245 -2.27264,5.082783 -2.91388,8.062694 z"
                 inkscape:connector-curvature="0"
                 style="fill:#a2deaf" />
              <path
                 id="profile-cards"
                 d="m 147.16539,64.631917 h 8.14756 l -0.90528,4.243523 c 1.88602,-1.621977 4.09263,-2.432953 6.61989,-2.432953 2.11235,0 3.79088,0.697817 5.03565,2.093472 1.24477,1.395654 1.86715,3.677704 1.86715,6.846217 0,2.979911 -0.43378,5.988068 -1.30134,9.02456 -0.86757,3.036492 -2.33865,5.6203 -4.41327,7.751502 -2.07462,2.131203 -4.80931,3.196788 -8.20414,3.196788 -2.41411,0 -4.0172,-0.678957 -4.80933,-2.036891 l -2.94218,13.805595 -8.54362,2.03689 z m 5.09223,25.800622 c 1.81058,0 3.30994,-0.848696 4.49813,-2.546114 1.18819,-1.697418 2.05575,-3.724859 2.6027,-6.082384 0.54694,-2.357524 0.82041,-4.554704 0.82041,-6.591606 0,-3.130793 -0.943,-4.696166 -2.82902,-4.696166 -0.67896,0 -1.36735,0.245179 -2.06518,0.735544 -0.69782,0.490366 -1.31077,1.169323 -1.83886,2.036892 l -3.33824,15.842487 c 0.30177,0.867569 1.01844,1.301347 2.15006,1.301347 z m 20.93471,-23.70715 h 8.14757 l -0.73555,3.507979 c 1.2825,-1.131612 2.44238,-1.999168 3.47969,-2.602694 1.03731,-0.603527 2.15948,-0.905285 3.36653,-0.905285 1.20705,0 2.15948,0.414918 2.85731,1.244766 0.69782,0.829849 1.04673,1.829425 1.04673,2.998757 0,1.093891 -0.35834,2.055747 -1.07503,2.885596 -0.71668,0.829849 -1.71626,1.244767 -2.99875,1.244767 -0.82985,0 -1.38622,-0.198029 -1.66912,-0.594094 -0.2829,-0.396064 -0.49979,-0.971291 -0.65067,-1.725699 -0.11317,-0.490365 -0.22632,-0.848704 -0.33949,-1.075026 -0.11316,-0.226322 -0.32062,-0.339482 -0.62238,-0.339482 -0.79213,0 -1.46165,0.160309 -2.0086,0.480933 -0.54695,0.320623 -1.25419,0.876991 -2.12176,1.669119 l -4.52643,21.500518 h -8.14756 z m 25.68746,28.516476 c -2.79131,0 -4.99792,-0.716677 -6.61989,-2.150052 -1.62198,-1.433375 -2.43296,-3.696564 -2.43296,-6.789637 0,-2.564987 0.52808,-5.412834 1.58425,-8.543627 1.05617,-3.130793 2.75357,-5.83719 5.09223,-8.119274 2.33866,-2.282084 5.28081,-3.423109 8.82653,-3.423109 4.82821,0 7.24228,3.017586 7.24228,9.052849 v 0.05658 c 0.11316,0.03772 0.32062,0.05658 0.62238,0.05658 1.24477,0 2.67813,-0.330048 4.30011,-0.990155 1.62197,-0.660107 3.09304,-1.461654 4.41326,-2.404663 l 0.50922,1.527668 c -1.09389,1.169332 -2.51781,2.159478 -4.27181,2.970466 -1.754,0.810989 -3.66828,1.386216 -5.7429,1.7257 -0.30177,3.432556 -1.07502,6.431282 -2.3198,8.996269 -1.24477,2.564987 -2.84786,4.545278 -4.80932,5.940933 -1.96146,1.395654 -4.09263,2.093471 -6.39358,2.093471 z m 2.26321,-5.092228 c 0.90529,0 1.81057,-0.518647 2.71586,-1.555958 0.90529,-1.037311 1.69741,-2.451805 2.37637,-4.243524 0.67897,-1.791718 1.16933,-3.781439 1.47109,-5.969222 -1.01845,-0.226323 -1.52767,-1.018439 -1.52767,-2.376373 0,-1.546537 0.58466,-2.564972 1.75399,-3.055337 -0.0754,-1.244773 -0.26404,-2.102899 -0.5658,-2.574404 -0.30176,-0.471505 -0.82984,-0.707254 -1.58425,-0.707254 -1.24477,0 -2.45181,0.905276 -3.62114,2.715855 -1.16933,1.810579 -2.11233,3.979469 -2.82902,6.506735 -0.71668,2.527267 -1.07502,4.752737 -1.07502,6.676477 0,1.810579 0.20746,3.027044 0.62238,3.64943 0.41493,0.622387 1.16932,0.933575 2.26321,0.933575 z m 9.61866,19.010983 c -2.07462,0 -3.76259,-0.57523 -5.06394,-1.7257 -1.30135,-1.15047 -1.95202,-2.68755 -1.95202,-4.61129 0,-1.58426 0.45264,-2.885594 1.35793,-3.904045 0.90529,-1.01845 2.01802,-1.829427 3.33823,-2.432953 1.32022,-0.603526 3.01761,-1.244763 5.09223,-1.92373 l 6.28042,-29.761244 c 1.01845,-4.677329 2.71584,-7.874085 5.09223,-9.590363 2.37638,-1.716278 5.09221,-2.574404 8.14756,-2.574404 2.82903,0 5.22424,0.471498 7.1857,1.414508 1.96146,0.94301 2.94218,2.640402 2.94218,5.092228 0,1.584257 -0.42435,2.744141 -1.27306,3.479689 -0.84871,0.735548 -1.9143,1.103316 -3.19679,1.103316 -0.98073,0 -1.79171,-0.235749 -2.43295,-0.707254 -0.64125,-0.471505 -0.96187,-1.254191 -0.96187,-2.348083 0,-0.716687 0.17917,-1.357924 0.53752,-1.92373 0.35834,-0.565806 0.82041,-0.848705 1.38621,-0.848705 0.26405,0 0.41493,0.01886 0.45265,0.05658 -0.0377,-0.754408 -0.33005,-1.320205 -0.877,-1.697409 -0.54695,-0.377204 -1.29191,-0.565803 -2.23492,-0.565803 -1.6597,0 -2.98932,0.603517 -3.98891,1.81057 -0.99959,1.207053 -1.66912,2.734706 -2.0086,4.583005 l -0.96187,4.639586 h 4.52643 l -0.45265,2.263212 h -4.52642 l -6.45016,30.553368 c -0.75441,3.545721 -2.05574,6.035231 -3.90404,7.468601 -1.8483,1.43338 -3.86631,2.15005 -6.05409,2.15005 z m 25.40456,-13.805594 c -1.81058,0 -3.27223,-0.565798 -4.38498,-1.697409 -1.11275,-1.131612 -1.66912,-2.829005 -1.66912,-5.092228 0,-0.94301 0.15088,-2.168905 0.45265,-3.677721 l 3.84746,-18.162279 h 8.14756 l -4.07378,19.237305 c -0.15088,0.565806 -0.22632,1.169324 -0.22632,1.81057 0,0.754408 0.17917,1.291916 0.53751,1.612539 0.35835,0.320624 0.95243,0.480933 1.78228,0.480933 1.09389,0 2.11233,-0.462068 3.05534,-1.386218 0.94301,-0.92415 1.62196,-2.121754 2.03689,-3.59285 h 2.37637 c -1.39565,4.073803 -3.18734,6.836781 -5.37513,8.289016 -2.18778,1.452235 -4.35667,2.178342 -6.50673,2.178342 z m -26.98881,8.769944 c 0.64125,0 1.27305,-0.35833 1.89544,-1.07502 0.62239,-0.71669 1.08445,-1.82942 1.38622,-3.33824 l 0.67896,-3.281658 c -1.92374,0.603526 -3.45139,1.367353 -4.583,2.291502 -1.13162,0.92415 -1.69741,1.970876 -1.69741,3.140206 0,0.82985 0.26403,1.41451 0.79212,1.75399 0.52809,0.33949 1.0373,0.50922 1.52767,0.50922 z m 42.09575,-8.769944 c -1.81058,0 -3.27222,-0.565798 -4.38497,-1.697409 -1.11276,-1.131612 -1.66912,-2.829005 -1.66912,-5.092228 0,-0.94301 0.15088,-2.168905 0.45264,-3.677721 l 6.05409,-28.346735 8.37389,-1.131607 -6.50674,30.553368 c -0.15088,0.565806 -0.22632,1.169324 -0.22632,1.81057 0,0.754408 0.17917,1.291916 0.53751,1.612539 0.35835,0.320624 0.95244,0.480933 1.78229,0.480933 1.09389,0 2.11232,-0.462068 3.05533,-1.386218 0.94301,-0.92415 1.62197,-2.121754 2.03689,-3.59285 h 2.37638 c -1.39566,4.073803 -3.18735,6.836781 -5.37513,8.289016 -2.18779,1.452235 -4.35668,2.178342 -6.50674,2.178342 z m 17.48332,0 c -2.75359,0 -4.90362,-0.726107 -6.45016,-2.178342 -1.54653,-1.452235 -2.31979,-3.724855 -2.31979,-6.817928 0,-2.602707 0.50922,-5.469414 1.52767,-8.600207 1.01845,-3.130793 2.67812,-5.83719 4.97906,-8.119274 2.30095,-2.282084 5.22423,-3.423109 8.76995,-3.423109 4.14925,0 6.22384,1.810552 6.22384,5.43171 0,2.112342 -0.60352,4.054913 -1.81057,5.827772 -1.20706,1.772858 -2.81015,3.196782 -4.80933,4.271813 -1.99918,1.075031 -4.13035,1.687979 -6.39358,1.83886 -0.0754,0.829849 -0.11316,1.395646 -0.11316,1.69741 0,3.130792 1.16932,4.696165 3.50798,4.696165 1.05617,0 2.18777,-0.282898 3.39482,-0.848704 1.20705,-0.565806 2.30093,-1.282483 3.28166,-2.150052 -1.01845,5.582619 -4.28122,8.373886 -9.78839,8.373886 z m 0.11316,-14.48456 c 1.43337,-0.03772 2.78186,-0.509218 4.04549,-1.414508 1.26363,-0.905289 2.28207,-2.065174 3.05534,-3.479689 0.77326,-1.414514 1.15989,-2.895018 1.15989,-4.441554 0,-1.546536 -0.4715,-2.319793 -1.41451,-2.319793 -1.32021,0 -2.63097,1.197605 -3.93233,3.59285 -1.30135,2.395245 -2.27264,5.082783 -2.91388,8.062694 z m 14.71088,-2.885596 h 11.31606 l -0.96187,4.469845 h -11.37264 z m 22.4058,17.370156 c -2.79131,0 -4.9602,-0.726107 -6.50674,-2.178342 -1.54653,-1.452235 -2.31979,-3.724855 -2.31979,-6.817928 0,-2.602707 0.51865,-5.469414 1.55596,-8.600207 1.03731,-3.130793 2.69698,-5.83719 4.97907,-8.119274 2.28208,-2.282084 5.17708,-3.423109 8.68508,-3.423109 2.26322,0 3.87574,0.490358 4.83761,1.471088 0.96187,0.98073 1.4428,2.225485 1.4428,3.7343 0,1.320214 -0.2829,2.33865 -0.8487,3.055337 -0.56581,0.716688 -1.28249,1.075026 -2.15006,1.075026 -0.64124,0 -1.30134,-0.226319 -1.98031,-0.678964 0.45265,-1.244773 0.67897,-2.357508 0.67897,-3.338238 0,-0.716688 -0.13202,-1.282485 -0.39607,-1.697409 -0.26404,-0.414925 -0.6601,-0.622384 -1.18818,-0.622384 -1.13161,0 -2.26321,0.924136 -3.39482,2.772436 -1.13161,1.848299 -2.05575,4.092629 -2.77244,6.733057 -0.71668,2.640427 -1.07502,5.016776 -1.07502,7.129119 0,1.848299 0.32062,3.102483 0.96186,3.76259 0.64125,0.660107 1.67855,0.990156 3.11192,0.990156 2.0369,0 3.78145,-0.471498 5.23368,-1.414508 1.45224,-0.94301 3.0459,-2.376363 4.78104,-4.300104 h 1.92373 c -4.18697,6.978274 -9.37344,10.467358 -15.55959,10.467358 z m 20.42549,0 c -2.15006,0 -3.94175,-0.735537 -5.37513,-2.206632 -1.43337,-1.471096 -2.15005,-3.772005 -2.15005,-6.902798 0,-2.791309 0.55637,-5.724026 1.66912,-8.798239 1.11275,-3.074212 2.77242,-5.67688 4.97907,-7.808082 2.20664,-2.131203 4.8376,-3.196788 7.89295,-3.196788 1.54654,0 2.69699,0.264039 3.4514,0.792124 0.75441,0.528086 1.13161,1.225903 1.13161,2.093472 v 0.396062 l 0.62238,-2.998756 h 8.14757 l -4.07379,19.237305 c -0.15088,0.565806 -0.22632,1.169324 -0.22632,1.81057 0,1.621977 0.77326,2.432954 2.31979,2.432954 1.05618,0 1.97088,-0.490358 2.74415,-1.471089 0.77327,-0.98073 1.38621,-2.263204 1.83886,-3.847461 h 2.37637 c -1.39565,4.073803 -3.12133,6.836781 -5.1771,8.289016 -2.05576,1.452235 -4.12092,2.178342 -6.19554,2.178342 -1.58426,0 -2.8573,-0.443208 -3.81917,-1.329637 -0.96187,-0.88643 -1.5371,-2.178334 -1.7257,-3.875752 -1.09389,1.546536 -2.31036,2.800721 -3.64943,3.762591 -1.33907,0.96187 -2.93274,1.442798 -4.78104,1.442798 z m 3.67772,-5.48829 c 0.94301,0 1.87658,-0.443208 2.80073,-1.329638 0.92415,-0.886429 1.55596,-2.102893 1.89544,-3.64943 l 2.71585,-12.78715 c 0,-0.490365 -0.1886,-0.971293 -0.5658,-1.442798 -0.3772,-0.471505 -0.96186,-0.707254 -1.75399,-0.707254 -1.50881,0 -2.86673,0.876986 -4.07378,2.630985 -1.20705,1.753998 -2.15005,3.866309 -2.82902,6.336995 -0.67896,2.470686 -1.01844,4.649006 -1.01844,6.535026 0,1.886019 0.27347,3.093054 0.82041,3.621139 0.54695,0.528086 1.21648,0.792125 2.0086,0.792125 z m 23.14135,-23.141347 h 8.14757 l -0.73555,3.507979 c 1.28249,-1.131612 2.44238,-1.999168 3.47969,-2.602694 1.03731,-0.603527 2.15948,-0.905285 3.36653,-0.905285 1.20705,0 2.15948,0.414918 2.8573,1.244766 0.69783,0.829849 1.04674,1.829425 1.04674,2.998757 0,1.093891 -0.35834,2.055747 -1.07503,2.885596 -0.71668,0.829849 -1.71626,1.244767 -2.99875,1.244767 -0.82985,0 -1.38622,-0.198029 -1.66912,-0.594094 -0.2829,-0.396064 -0.49979,-0.971291 -0.65067,-1.725699 -0.11317,-0.490365 -0.22633,-0.848704 -0.33949,-1.075026 -0.11316,-0.226322 -0.32062,-0.339482 -0.62238,-0.339482 -0.79213,0 -1.46165,0.160309 -2.0086,0.480933 -0.54695,0.320623 -1.25419,0.876991 -2.12176,1.669119 l -4.52643,21.500518 h -8.14756 z m 24.21637,28.629637 c -2.15006,0 -3.94175,-0.735537 -5.37513,-2.206632 -1.43337,-1.471096 -2.15005,-3.772005 -2.15005,-6.902798 0,-2.791309 0.55637,-5.724026 1.66912,-8.798239 1.11275,-3.074212 2.77243,-5.67688 4.97907,-7.808082 2.20664,-2.131203 4.8376,-3.196788 7.89295,-3.196788 1.54654,0 2.69699,0.264039 3.4514,0.792124 0.75441,0.528086 1.13161,1.225903 1.13161,2.093472 v 0.226321 l 2.77243,-13.013471 8.37389,-1.131607 -6.50674,30.553368 c -0.15088,0.565806 -0.22632,1.169324 -0.22632,1.81057 0,0.754408 0.17917,1.291916 0.53752,1.612539 0.35834,0.320624 0.95243,0.480933 1.78227,0.480933 1.05618,0 1.97088,-0.452638 2.74415,-1.357928 0.77327,-0.905289 1.38621,-2.112324 1.83886,-3.62114 h 2.37637 c -2.30094,6.751951 -6.09178,10.127876 -11.37264,10.127876 -1.54654,0 -2.80072,-0.414918 -3.76259,-1.244767 -0.96187,-0.829849 -1.55596,-2.036883 -1.78228,-3.62114 -0.98073,1.508816 -2.15947,2.75357 -3.53627,3.734301 -1.37679,0.98073 -2.98932,1.471088 -4.83762,1.471088 z m 3.67772,-5.48829 c 0.90529,0 1.82,-0.414918 2.74415,-1.244767 0.92415,-0.829849 1.55596,-1.980304 1.89544,-3.451399 v -0.282902 l 2.77243,-12.956891 c -0.33948,-1.320214 -1.11273,-1.980311 -2.31979,-1.980311 -1.50881,0 -2.86673,0.876986 -4.07378,2.630985 -1.20705,1.753998 -2.15005,3.866309 -2.82902,6.336995 -0.67896,2.470686 -1.01844,4.649006 -1.01844,6.535026 0,1.886019 0.27347,3.093054 0.82041,3.621139 0.54695,0.528086 1.21648,0.792125 2.0086,0.792125 z m 25.68746,5.48829 c -1.81057,0 -3.33823,-0.348908 -4.583,-1.046736 -1.24477,-0.697827 -2.16891,-1.603103 -2.77244,-2.715855 -0.60352,-1.112751 -0.90528,-2.272636 -0.90528,-3.479689 0,-1.244773 0.29233,-2.329218 0.87699,-3.253368 0.58467,-0.92415 1.29192,-1.593676 2.12177,-2.008601 1.47109,-2.640427 2.75357,-5.309105 3.84746,-8.006114 1.09389,-2.697008 2.13118,-5.610865 3.11191,-8.741658 l 8.37389,-1.131606 c 0.1886,4.828211 0.50922,10.052407 0.96187,15.672746 0.1886,2.263224 0.2829,3.904036 0.2829,4.922487 0,2.300944 -0.58466,4.186936 -1.75399,5.658031 -1.16933,1.471096 -2.61212,2.527251 -4.3284,3.168498 -1.71627,0.641246 -3.46082,0.961865 -5.23368,0.961865 z m -1.81057,-4.469845 c 1.39566,0 2.56498,-0.414918 3.50798,-1.244766 0.94301,-0.829849 1.41451,-2.168903 1.41451,-4.017203 0,-1.131611 -0.11316,-2.715844 -0.33948,-4.752746 -0.3772,-4.300125 -0.62238,-7.185692 -0.73554,-8.656787 -0.90529,2.979911 -2.43295,6.544435 -4.58301,10.693679 0.86757,0.452644 1.30135,1.112741 1.30135,1.98031 0,0.716688 -0.23575,1.357925 -0.70726,1.923731 -0.4715,0.565806 -1.06559,0.848705 -1.78228,0.848705 -0.79212,0 -1.30134,-0.245179 -1.52766,-0.735544 0,1.357934 0.27346,2.357509 0.82041,2.998756 0.54695,0.641247 1.42393,0.961865 2.63098,0.961865 z"
                 inkscape:connector-curvature="0"
                 style="fill:#a2deaf" />
              <path
                 id="path233"
                 d="m 136.81119,51.957927 c -1.39565,0 -2.62155,-0.113159 -3.67772,-0.339481 -1.05617,-0.226323 -1.97088,-0.77326 -2.74414,-1.640829 -0.77327,-0.86757 -1.1599,-2.206623 -1.1599,-4.017203 0,-2.527266 0.76383,-5.922051 2.2915,-10.184455 1.52768,-4.262405 3.53626,-8.543606 6.02581,-12.843731 -1.88602,0.113161 -3.37596,0.39606 -4.46985,0.848705 -1.09389,0.452644 -1.81057,1.150461 -2.15005,2.093471 0.15088,0 0.31119,0.188599 0.48093,0.565803 0.16974,0.377204 0.25461,0.773262 0.25461,1.188187 0,0.678967 -0.30176,1.216474 -0.90528,1.612539 -0.60353,0.396064 -1.35792,0.594093 -2.26321,0.594093 -1.05618,0 -1.90487,-0.282899 -2.54612,-0.848705 -0.64125,-0.565806 -0.96186,-1.376782 -0.96186,-2.432953 0,-1.282494 0.49978,-2.451808 1.49938,-3.507979 0.99959,-1.056172 2.38579,-1.895438 4.15865,-2.517824 1.77286,-0.622387 3.73429,-0.933575 5.88435,-0.933575 0.79213,0 1.77284,0.05658 2.94218,0.169741 3.09307,-4.903652 6.36526,-8.911384 9.81668,-12.0233165 3.45142,-3.1119327 6.74247,-4.6678756 9.87326,-4.6678756 1.81058,0 3.30052,0.2640388 4.46985,0.7921243 l -8.88311,41.6431088 h -8.14757 l 4.35669,-20.538653 c -1.39565,-0.641247 -2.67813,-1.112744 -3.84746,-1.414508 -1.16933,-0.301763 -2.41409,-0.509222 -3.7343,-0.622383 -2.15007,4.639609 -3.91347,9.382877 -5.29026,14.229948 -1.3768,4.847071 -2.06518,8.722784 -2.06518,11.627254 0,1.433375 0.26404,2.48953 0.79212,3.168497 z M 154.74715,7.0897409 c -1.62198,0.8675691 -3.30994,2.4800919 -5.06394,4.8376161 -1.754,2.357525 -3.46082,5.214802 -5.12052,8.571918 2.71587,0.528085 5.01678,1.188182 6.9028,1.98031 z m 13.12663,38.7575131 c -1.81058,0 -3.27222,-0.565798 -4.38497,-1.697409 -1.11275,-1.131612 -1.66912,-2.829005 -1.66912,-5.092228 0,-0.94301 0.15088,-2.168905 0.45264,-3.677721 l 3.84746,-18.162279 h 8.14757 l -4.07379,19.237305 c -0.11316,0.452645 -0.16974,0.924143 -0.16974,1.414508 0,1.659698 0.5658,2.489534 1.69741,2.489534 1.05617,0 1.96145,-0.443208 2.71586,-1.329638 0.75441,-0.886429 1.35792,-2.102893 1.81057,-3.64943 l 3.84746,-18.162279 h 8.14756 l -4.07378,19.237305 c -0.1886,0.94301 -0.2829,1.621967 -0.2829,2.036891 0,1.244774 0.64124,1.867151 1.92373,1.867151 1.73514,0 3.34766,-1.093875 4.83762,-3.281658 1.48995,-2.187783 2.68756,-4.790452 3.59285,-7.808083 0.90529,-3.017632 1.35793,-5.6203 1.35793,-7.808083 -0.0754,0.188602 -0.32063,0.330051 -0.73555,0.424352 -0.41492,0.0943 -0.77326,0.141451 -1.07503,0.141451 -0.64124,0 -1.14103,-0.301759 -1.49937,-0.905285 -0.35835,-0.603526 -0.53752,-1.263623 -0.53752,-1.980311 0,-0.905289 0.29233,-1.640826 0.877,-2.206632 0.58466,-0.565806 1.46165,-0.848705 2.63098,-0.848705 1.24478,0 2.15005,0.462068 2.71586,1.386218 0.5658,0.92415 0.8487,2.102894 0.8487,3.536269 0,3.394836 -0.58466,7.02537 -1.75399,10.89171 -1.16933,3.866341 -2.96102,7.157396 -5.37513,9.873264 -2.4141,2.715869 -5.41283,4.073783 -8.99627,4.073783 -1.8483,0 -3.35709,-0.396058 -4.52642,-1.188187 -1.16933,-0.792128 -1.92373,-1.980303 -2.26321,-3.564559 -2.11235,3.168513 -4.79045,4.752746 -8.03441,4.752746 z m 39.88912,0 c -2.79131,0 -4.9602,-0.726107 -6.50673,-2.178342 -1.54654,-1.452235 -2.3198,-3.724855 -2.3198,-6.817927 0,-2.602708 0.50922,-5.469415 1.52767,-8.600208 1.01845,-3.130793 2.67812,-5.837191 4.97907,-8.119274 2.30094,-2.282084 5.22423,-3.423109 8.76995,-3.423109 4.14924,0 6.22383,1.810552 6.22383,5.43171 0,2.112342 -0.60352,4.054913 -1.81057,5.827772 -1.20705,1.772858 -2.81014,3.196782 -4.80933,4.271813 -1.99918,1.075031 -4.13035,1.687979 -6.39357,1.83886 -0.0754,1.131612 -0.11316,1.886009 -0.11316,2.263213 0,1.848299 0.32062,3.102483 0.96186,3.76259 0.64125,0.660107 1.67855,0.990156 3.11192,0.990156 2.0369,0 3.78144,-0.471498 5.23368,-1.414508 1.45223,-0.94301 3.0459,-2.376363 4.78104,-4.300104 h 1.92373 c -4.18697,6.978274 -9.37344,10.467358 -15.55959,10.467358 z m 0.11316,-14.48456 c 1.39566,-0.07544 2.72528,-0.565798 3.98891,-1.471088 1.26364,-0.905289 2.28207,-2.055744 3.05534,-3.451399 0.77327,-1.395654 1.1599,-2.866728 1.1599,-4.413264 0,-1.546536 -0.4715,-2.319793 -1.41451,-2.319793 -1.35794,0 -2.68756,1.188175 -3.98891,3.56456 -1.30136,2.376385 -2.23492,5.073353 -2.80073,8.090984 z m 19.97285,14.48456 c -1.81058,0 -3.33823,-0.348909 -4.583,-1.046736 -1.24478,-0.697827 -2.16891,-1.603103 -2.77244,-2.715855 -0.60353,-1.112752 -0.90528,-2.272636 -0.90528,-3.479689 0,-1.244773 0.29232,-2.329218 0.87699,-3.253368 0.58467,-0.92415 1.29191,-1.593676 2.12176,-2.008601 1.4711,-2.640428 2.75357,-5.309106 3.84746,-8.006114 1.0939,-2.697008 2.13119,-5.610865 3.11192,-8.741658 l 8.37389,-1.131606 c 0.1886,4.828211 0.50922,10.052407 0.96186,15.672746 0.1886,2.263224 0.2829,3.904036 0.2829,4.922487 0,0.867569 -0.0754,1.584246 -0.22632,2.150052 1.77286,-1.018451 3.13077,-1.961447 4.07378,-2.829016 h 2.37638 c -2.41411,2.79131 -5.29967,5.148799 -8.65679,7.072539 -1.09389,1.169332 -2.44238,2.027459 -4.04549,2.574404 -1.60312,0.546946 -3.21564,0.820415 -4.83762,0.820415 z m -1.81057,-4.469845 c 1.39566,0 2.56497,-0.414918 3.50798,-1.244766 0.94301,-0.829849 1.41451,-2.168903 1.41451,-4.017203 0,-1.131611 -0.11316,-2.715844 -0.33948,-4.752746 -0.37721,-4.300125 -0.62239,-7.185692 -0.73555,-8.656787 -0.90529,2.979911 -2.43294,6.544435 -4.583,10.693678 0.86757,0.452645 1.30134,1.112742 1.30134,1.980311 0,0.716688 -0.23574,1.357925 -0.70725,1.923731 -0.4715,0.565806 -1.06559,0.848705 -1.78228,0.848705 -0.79213,0 -1.30135,-0.245179 -1.52767,-0.735544 0,1.357934 0.27347,2.357509 0.82042,2.998756 0.54694,0.641247 1.42393,0.961865 2.63098,0.961865 z m 25.23482,4.356684 c -2.79131,0 -4.99792,-0.716676 -6.6199,-2.150052 -1.62197,-1.433375 -2.43295,-3.696564 -2.43295,-6.789637 0,-2.564987 0.52808,-5.412834 1.58425,-8.543627 1.05617,-3.130793 2.75356,-5.837191 5.09223,-8.119274 2.33866,-2.282084 5.28081,-3.423109 8.82653,-3.423109 4.82821,0 7.24228,3.017586 7.24228,9.052849 v 0.05658 c 0.11316,0.03772 0.32062,0.05658 0.62238,0.05658 1.24477,0 2.67813,-0.330048 4.3001,-0.990155 1.62198,-0.660107 3.09305,-1.461654 4.41327,-2.404664 l 0.50922,1.527669 c -1.09389,1.169332 -2.51782,2.159478 -4.27181,2.970466 -1.754,0.810989 -3.66828,1.386216 -5.7429,1.7257 -0.30177,3.432556 -1.07502,6.431282 -2.3198,8.996269 -1.24477,2.564987 -2.84786,4.545278 -4.80932,5.940933 -1.96147,1.395654 -4.09264,2.093471 -6.39358,2.093472 z m 2.26321,-5.092228 c 0.90529,0 1.81057,-0.518647 2.71586,-1.555958 0.90529,-1.037311 1.6974,-2.451805 2.37637,-4.243524 0.67897,-1.791718 1.16933,-3.781439 1.47109,-5.969222 -1.01845,-0.226323 -1.52767,-1.018439 -1.52767,-2.376373 0,-1.546537 0.58466,-2.564972 1.75399,-3.055337 -0.0754,-1.244773 -0.26404,-2.102899 -0.5658,-2.574404 -0.30177,-0.471505 -0.82984,-0.707254 -1.58425,-0.707254 -1.24477,0 -2.45181,0.905276 -3.62114,2.715855 -1.16933,1.810579 -2.11233,3.979469 -2.82902,6.506735 -0.71668,2.527267 -1.07502,4.752737 -1.07502,6.676477 0,1.810579 0.20746,3.027044 0.62238,3.64943 0.41492,0.622387 1.16932,0.933575 2.26321,0.933575 z m 48.71565,5.205389 c -2.30094,0 -3.98891,-0.612947 -5.06394,-1.83886 -1.07503,-1.225913 -1.61254,-2.744136 -1.61254,-4.554715 0,-0.792129 0.0943,-1.687975 0.28291,-2.687565 0.1886,-0.999591 0.38663,-1.970876 0.59409,-2.913886 0.20746,-0.94301 0.34891,-1.546527 0.42435,-1.81057 0.30176,-1.320214 0.58466,-2.621548 0.84871,-3.904041 0.26404,-1.282494 0.39606,-2.319789 0.39606,-3.111917 0,-1.923741 -0.67896,-2.885596 -2.03689,-2.885596 -0.98073,0 -1.84829,0.480927 -2.6027,1.442798 -0.75441,0.96187 -1.35792,2.216054 -1.81057,3.76259 l -3.84746,18.16228 h -8.14756 l 4.13036,-19.520207 c 0.11316,-0.452645 0.16974,-0.924143 0.16974,-1.414508 0,-1.659697 -0.5658,-2.489534 -1.69741,-2.489534 -1.05617,0 -1.97088,0.480928 -2.74414,1.442798 -0.77327,0.96187 -1.38622,2.234915 -1.83886,3.819171 l -3.84747,18.16228 h -8.14756 l 5.99751,-28.290155 h 8.14757 l -0.62239,2.942176 c 1.92374,-2.150063 4.22465,-3.225078 6.9028,-3.225078 3.3194,0 5.26197,1.621953 5.82777,4.865907 2.07463,-3.206234 4.69615,-4.809327 7.86467,-4.809327 1.92374,0 3.45139,0.528078 4.583,1.584249 1.13161,1.056171 1.69741,2.659264 1.69741,4.809327 0,1.093891 -0.13202,2.310355 -0.39606,3.649429 -0.26404,1.339075 -0.64124,2.970457 -1.13161,4.894197 -0.30176,1.169333 -0.57523,2.310358 -0.82041,3.423109 -0.24518,1.112752 -0.36777,1.989738 -0.36777,2.630985 0,0.754408 0.16974,1.339065 0.50922,1.753989 0.33948,0.414925 0.92414,0.622384 1.75399,0.622384 1.13161,0 2.03689,-0.405488 2.71585,-1.216477 0.67897,-0.810988 1.35793,-2.065173 2.03689,-3.762591 h 2.37638 c -1.39566,4.149244 -3.00818,6.931081 -4.83762,8.345596 -1.82944,1.414515 -3.72486,2.121762 -5.68632,2.121762 z m 16.12539,0 c -2.75359,0 -4.90362,-0.726107 -6.45016,-2.178342 -1.54653,-1.452235 -2.31979,-3.724855 -2.31979,-6.817927 0,-2.602708 0.50922,-5.469415 1.52767,-8.600208 1.01845,-3.130793 2.67812,-5.837191 4.97907,-8.119274 2.30094,-2.282084 5.22423,-3.423109 8.76994,-3.423109 4.14925,0 6.22384,1.810552 6.22384,5.43171 0,2.112342 -0.60352,4.054913 -1.81057,5.827772 -1.20705,1.772858 -2.81015,3.196782 -4.80933,4.271813 -1.99918,1.075031 -4.13035,1.687979 -6.39357,1.83886 -0.0754,0.829849 -0.11316,1.395646 -0.11316,1.69741 0,3.130792 1.16931,4.696165 3.50798,4.696165 1.05617,0 2.18776,-0.282898 3.39481,-0.848704 1.20706,-0.565806 2.30093,-1.282483 3.28166,-2.150052 -1.01845,5.582619 -4.28121,8.373886 -9.78839,8.373886 z m 0.11316,-14.48456 c 1.43337,-0.03772 2.78186,-0.509218 4.04549,-1.414508 1.26363,-0.905289 2.28207,-2.065174 3.05534,-3.479689 0.77327,-1.414514 1.1599,-2.895018 1.1599,-4.441554 0,-1.546536 -0.4715,-2.319793 -1.41451,-2.319793 -1.32022,0 -2.63098,1.197605 -3.93233,3.59285 -1.30136,2.395245 -2.27264,5.082783 -2.91389,8.062694 z"
                 inkscape:connector-curvature="0"
                 style="fill:#114e4e" />
              <path
                 id="path235"
                 d="m 145.75088,63.217409 h 8.14757 l -0.90529,4.243524 c 1.88602,-1.621977 4.09263,-2.432954 6.6199,-2.432954 2.11234,0 3.79087,0.697817 5.03564,2.093472 1.24478,1.395654 1.86715,3.677704 1.86715,6.846217 0,2.979912 -0.43377,5.988068 -1.30134,9.02456 -0.86757,3.036492 -2.33865,5.6203 -4.41327,7.751503 -2.07462,2.131202 -4.80931,3.196787 -8.20414,3.196787 -2.41411,0 -4.0172,-0.678957 -4.80933,-2.036891 l -2.94217,13.805593 -8.54363,2.03689 z m 5.09223,25.800622 c 1.81058,0 3.30994,-0.848696 4.49813,-2.546114 1.1882,-1.697418 2.05575,-3.724859 2.6027,-6.082383 0.54694,-2.357525 0.82041,-4.554705 0.82041,-6.591607 0,-3.130792 -0.94299,-4.696165 -2.82901,-4.696165 -0.67897,0 -1.36736,0.245179 -2.06519,0.735544 -0.69782,0.490365 -1.31077,1.169322 -1.83886,2.036891 l -3.33823,15.842487 c 0.30176,0.867569 1.01844,1.301347 2.15005,1.301347 z m 20.93471,-23.70715 h 8.14757 l -0.73555,3.507979 c 1.2825,-1.131612 2.44238,-1.999168 3.47969,-2.602694 1.03731,-0.603527 2.15948,-0.905285 3.36653,-0.905285 1.20705,0 2.15948,0.414918 2.85731,1.244767 0.69782,0.829848 1.04673,1.829424 1.04673,2.998756 0,1.093892 -0.35834,2.055747 -1.07502,2.885596 -0.71669,0.829849 -1.71626,1.244767 -2.99876,1.244767 -0.82985,0 -1.38622,-0.198029 -1.66912,-0.594093 -0.2829,-0.396065 -0.49979,-0.971292 -0.65067,-1.7257 -0.11316,-0.490365 -0.22632,-0.848703 -0.33948,-1.075026 -0.11317,-0.226322 -0.32062,-0.339482 -0.62239,-0.339482 -0.79213,0 -1.46165,0.16031 -2.0086,0.480933 -0.54694,0.320623 -1.25419,0.876991 -2.12176,1.669119 l -4.52642,21.500518 h -8.14757 z m 25.68746,28.516477 c -2.7913,0 -4.99791,-0.716677 -6.61989,-2.150052 -1.62198,-1.433375 -2.43296,-3.696565 -2.43296,-6.789638 0,-2.564986 0.52808,-5.412834 1.58425,-8.543626 1.05617,-3.130793 2.75357,-5.837191 5.09223,-8.119275 2.33867,-2.282084 5.28081,-3.423109 8.82653,-3.423109 4.82821,0 7.24228,3.017586 7.24228,9.05285 v 0.05658 c 0.11316,0.03772 0.32062,0.05658 0.62238,0.05658 1.24478,0 2.67813,-0.330048 4.30011,-0.990155 1.62197,-0.660107 3.09305,-1.461653 4.41326,-2.404663 l 0.50922,1.527668 c -1.09389,1.169332 -2.51781,2.159478 -4.27181,2.970466 -1.754,0.810989 -3.66828,1.386216 -5.7429,1.7257 -0.30176,3.432556 -1.07502,6.431282 -2.31979,8.996269 -1.24478,2.564987 -2.84787,4.545278 -4.80933,5.940933 -1.96146,1.395655 -4.09263,2.093472 -6.39358,2.093472 z m 2.26322,-5.092229 c 0.90529,0 1.81056,-0.518647 2.71585,-1.555958 0.90529,-1.037311 1.69741,-2.451804 2.37637,-4.243523 0.67897,-1.791719 1.16933,-3.78144 1.47109,-5.969223 -1.01845,-0.226322 -1.52766,-1.018439 -1.52766,-2.376373 0,-1.546536 0.58465,-2.564972 1.75398,-3.055337 -0.0754,-1.244773 -0.26404,-2.102899 -0.5658,-2.574404 -0.30176,-0.471505 -0.82984,-0.707254 -1.58425,-0.707254 -1.24477,0 -2.4518,0.905276 -3.62114,2.715855 -1.16933,1.810579 -2.11233,3.979469 -2.82901,6.506736 -0.71669,2.527266 -1.07503,4.752736 -1.07503,6.676476 0,1.810579 0.20746,3.027044 0.62238,3.64943 0.41493,0.622387 1.16933,0.933575 2.26322,0.933575 z m 9.61865,19.010981 c -2.07462,0 -3.76258,-0.57522 -5.06394,-1.72569 -1.30135,-1.15048 -1.95202,-2.68756 -1.95202,-4.6113 0,-1.584258 0.45264,-2.885592 1.35793,-3.904042 0.90529,-1.018451 2.01802,-1.829427 3.33824,-2.432954 1.32021,-0.603526 3.0176,-1.244763 5.09222,-1.92373 L 218.4,63.38715 c 1.01845,-4.677329 2.71584,-7.874084 5.09223,-9.590362 2.37638,-1.716278 5.09221,-2.574405 8.14756,-2.574405 2.82903,0 5.22424,0.471498 7.1857,1.414508 1.96146,0.94301 2.94218,2.640402 2.94218,5.092228 0,1.584257 -0.42435,2.744142 -1.27306,3.479689 -0.84871,0.735548 -1.91429,1.103316 -3.19679,1.103316 -0.98073,0 -1.7917,-0.235749 -2.43295,-0.707254 -0.64125,-0.471505 -0.96187,-1.254191 -0.96187,-2.348082 0,-0.716688 0.17917,-1.357925 0.53752,-1.923731 0.35834,-0.565806 0.82041,-0.848705 1.38622,-0.848705 0.26404,0 0.41492,0.01886 0.45264,0.05658 -0.0377,-0.754408 -0.33005,-1.320206 -0.877,-1.69741 -0.54694,-0.377204 -1.29191,-0.565803 -2.23492,-0.565803 -1.6597,0 -2.98932,0.603517 -3.98891,1.81057 -0.99959,1.207053 -1.66912,2.734706 -2.0086,4.583005 l -0.96187,4.639586 h 4.52643 l -0.45265,2.263212 h -4.52642 l -6.45016,30.553368 c -0.7544,3.54572 -2.05574,6.03523 -3.90404,7.4686 -1.8483,1.43338 -3.86631,2.15005 -6.05409,2.15005 z m 25.40456,-13.805592 c -1.81058,0 -3.27222,-0.565797 -4.38497,-1.697409 -1.11276,-1.131612 -1.66912,-2.829004 -1.66912,-5.092228 0,-0.94301 0.15088,-2.168904 0.45264,-3.67772 l 3.84746,-18.16228 h 8.14756 l -4.07378,19.237305 c -0.15088,0.565806 -0.22632,1.169324 -0.22632,1.81057 0,0.754408 0.17917,1.291916 0.53751,1.612539 0.35835,0.320624 0.95243,0.480933 1.78228,0.480933 1.0939,0 2.11233,-0.462068 3.05534,-1.386218 0.94301,-0.924149 1.62197,-2.121754 2.03689,-3.592849 h 2.37637 c -1.39565,4.073802 -3.18734,6.83678 -5.37512,8.289015 -2.18779,1.452235 -4.35668,2.178342 -6.50674,2.178342 z m -26.98881,8.769952 c 0.64125,0 1.27305,-0.35834 1.89544,-1.07503 0.62239,-0.71669 1.08446,-1.829422 1.38622,-3.338238 l 0.67896,-3.281658 c -1.92374,0.603526 -3.45139,1.367353 -4.583,2.291503 -1.13161,0.924149 -1.69741,1.970875 -1.69741,3.140203 0,0.82985 0.26404,1.41451 0.79212,1.75399 0.52809,0.33949 1.03731,0.50923 1.52767,0.50923 z m 42.09575,-8.769952 c -1.81058,0 -3.27222,-0.565797 -4.38497,-1.697409 -1.11275,-1.131612 -1.66912,-2.829004 -1.66912,-5.092228 0,-0.94301 0.15088,-2.168904 0.45264,-3.67772 l 6.05409,-28.346736 8.37389,-1.131606 -6.50673,30.553367 c -0.15089,0.565806 -0.22633,1.169324 -0.22633,1.81057 0,0.754408 0.17917,1.291916 0.53752,1.612539 0.35834,0.320624 0.95243,0.480933 1.78228,0.480933 1.09389,0 2.11232,-0.462068 3.05533,-1.386218 0.94301,-0.924149 1.62197,-2.121754 2.03689,-3.592849 h 2.37638 c -1.39566,4.073802 -3.18735,6.83678 -5.37513,8.289015 -2.18778,1.452235 -4.35668,2.178342 -6.50674,2.178342 z m 17.48332,0 c -2.75359,0 -4.90362,-0.726107 -6.45016,-2.178342 -1.54653,-1.452235 -2.31979,-3.724855 -2.31979,-6.817927 0,-2.602708 0.50922,-5.469415 1.52767,-8.600207 1.01845,-3.130793 2.67812,-5.837191 4.97907,-8.119275 2.30094,-2.282084 5.22423,-3.423109 8.76994,-3.423109 4.14925,0 6.22384,1.810552 6.22384,5.43171 0,2.112342 -0.60352,4.054913 -1.81057,5.827772 -1.20705,1.772859 -2.81015,3.196782 -4.80933,4.271813 -1.99918,1.075032 -4.13035,1.687979 -6.39357,1.83886 -0.0754,0.829849 -0.11316,1.395647 -0.11316,1.69741 0,3.130793 1.16931,4.696166 3.50798,4.696166 1.05617,0 2.18776,-0.282899 3.39481,-0.848705 1.20706,-0.565806 2.30093,-1.282483 3.28166,-2.150052 -1.01845,5.582619 -4.28121,8.373886 -9.78839,8.373886 z m 0.11316,-14.48456 c 1.43337,-0.03772 2.78186,-0.509218 4.04549,-1.414507 1.26363,-0.90529 2.28207,-2.065175 3.05534,-3.479689 0.77327,-1.414515 1.15989,-2.895019 1.15989,-4.441555 0,-1.546536 -0.47149,-2.319792 -1.4145,-2.319792 -1.32022,0 -2.63098,1.197604 -3.93233,3.592849 -1.30136,2.395245 -2.27264,5.082783 -2.91389,8.062694 z m 14.71088,-2.885595 h 11.31606 l -0.96186,4.469844 h -11.37265 z m 22.4058,17.370155 c -2.79131,0 -4.9602,-0.726107 -6.50673,-2.178342 -1.54654,-1.452235 -2.31979,-3.724855 -2.31979,-6.817927 0,-2.602708 0.51864,-5.469415 1.55595,-8.600207 1.03731,-3.130793 2.69699,-5.837191 4.97907,-8.119275 2.28208,-2.282084 5.17708,-3.423109 8.68508,-3.423109 2.26322,0 3.87574,0.490358 4.83761,1.471088 0.96188,0.98073 1.4428,2.225485 1.4428,3.734301 0,1.320213 -0.2829,2.338649 -0.8487,3.055336 -0.56581,0.716688 -1.28248,1.075026 -2.15005,1.075026 -0.64125,0 -1.30135,-0.226319 -1.98031,-0.678963 0.45264,-1.244773 0.67896,-2.357509 0.67896,-3.338239 0,-0.716687 -0.13202,-1.282485 -0.39606,-1.697409 -0.26405,-0.414924 -0.6601,-0.622383 -1.18819,-0.622383 -1.13161,0 -2.26321,0.924135 -3.39482,2.772435 -1.13161,1.848299 -2.05575,4.092629 -2.77243,6.733057 -0.71669,2.640427 -1.07503,5.016777 -1.07503,7.129119 0,1.848299 0.32062,3.102484 0.96187,3.762591 0.64124,0.660107 1.67854,0.990155 3.11191,0.990155 2.0369,0 3.78145,-0.471498 5.23368,-1.414508 1.45224,-0.94301 3.0459,-2.376363 4.78104,-4.300103 h 1.92373 c -4.18697,6.978273 -9.37344,10.467357 -15.55959,10.467357 z m 20.4255,0 c -2.15007,0 -3.94176,-0.735537 -5.37513,-2.206632 -1.43338,-1.471095 -2.15006,-3.772005 -2.15006,-6.902798 0,-2.791309 0.55637,-5.724026 1.66912,-8.798238 1.11275,-3.074213 2.77243,-5.676881 4.97907,-7.808083 2.20664,-2.131203 4.8376,-3.196788 7.89295,-3.196788 1.54654,0 2.697,0.264039 3.4514,0.792125 0.75441,0.528085 1.13161,1.225902 1.13161,2.093471 v 0.396062 l 0.62238,-2.998756 h 8.14757 l -4.07379,19.237305 c -0.15088,0.565806 -0.22632,1.169324 -0.22632,1.81057 0,1.621977 0.77326,2.432954 2.3198,2.432954 1.05617,0 1.97087,-0.490358 2.74414,-1.471088 0.77327,-0.980731 1.38622,-2.263205 1.83886,-3.847461 h 2.37637 c -1.39565,4.073802 -3.12133,6.83678 -5.17709,8.289015 -2.05577,1.452235 -4.12093,2.178342 -6.19555,2.178342 -1.58425,0 -2.8573,-0.443208 -3.81917,-1.329637 -0.96187,-0.88643 -1.5371,-2.178334 -1.7257,-3.875752 -1.09389,1.546537 -2.31035,2.800721 -3.64943,3.762591 -1.33907,0.96187 -2.93274,1.442798 -4.78103,1.442798 z m 3.67772,-5.48829 c 0.94301,0 1.87657,-0.443208 2.80072,-1.329637 0.92415,-0.88643 1.55596,-2.102894 1.89544,-3.64943 l 2.71586,-12.787151 c 0,-0.490365 -0.1886,-0.971293 -0.56581,-1.442798 -0.3772,-0.471504 -0.96186,-0.707253 -1.75399,-0.707253 -1.50881,0 -2.86673,0.876986 -4.07378,2.630984 -1.20705,1.753998 -2.15005,3.866309 -2.82901,6.336995 -0.67897,2.470686 -1.01845,4.649006 -1.01845,6.535026 0,1.886019 0.27347,3.093054 0.82041,3.62114 0.54695,0.528085 1.21648,0.792124 2.00861,0.792124 z m 23.14134,-23.141347 h 8.14757 l -0.73555,3.507979 c 1.2825,-1.131612 2.44238,-1.999168 3.47969,-2.602694 1.03731,-0.603527 2.15948,-0.905285 3.36653,-0.905285 1.20705,0 2.15948,0.414918 2.85731,1.244767 0.69782,0.829848 1.04673,1.829424 1.04673,2.998756 0,1.093892 -0.35834,2.055747 -1.07502,2.885596 -0.71669,0.829849 -1.71627,1.244767 -2.99876,1.244767 -0.82985,0 -1.38622,-0.198029 -1.66912,-0.594093 -0.2829,-0.396065 -0.49979,-0.971292 -0.65067,-1.7257 -0.11316,-0.490365 -0.22632,-0.848703 -0.33948,-1.075026 -0.11317,-0.226322 -0.32062,-0.339482 -0.62239,-0.339482 -0.79213,0 -1.46165,0.16031 -2.0086,0.480933 -0.54694,0.320623 -1.25419,0.876991 -2.12176,1.669119 l -4.52642,21.500518 h -8.14757 z m 24.21638,28.629637 c -2.15007,0 -3.94176,-0.735537 -5.37513,-2.206632 -1.43338,-1.471095 -2.15006,-3.772005 -2.15006,-6.902798 0,-2.791309 0.55637,-5.724026 1.66912,-8.798238 1.11276,-3.074213 2.77243,-5.676881 4.97907,-7.808083 2.20664,-2.131203 4.8376,-3.196788 7.89295,-3.196788 1.54654,0 2.697,0.264039 3.4514,0.792125 0.75441,0.528085 1.13161,1.225902 1.13161,2.093471 v 0.226321 l 2.77244,-13.013471 8.37388,-1.131606 -6.50674,30.553367 c -0.15088,0.565806 -0.22632,1.169324 -0.22632,1.81057 0,0.754408 0.17917,1.291916 0.53752,1.612539 0.35834,0.320624 0.95243,0.480933 1.78228,0.480933 1.05617,0 1.97087,-0.452638 2.74414,-1.357927 0.77327,-0.90529 1.38622,-2.112324 1.83886,-3.62114 h 2.37637 c -2.30094,6.75195 -6.09178,10.127875 -11.37264,10.127875 -1.54653,0 -2.80072,-0.414918 -3.76259,-1.244767 -0.96187,-0.829848 -1.55596,-2.036883 -1.78228,-3.62114 -0.98073,1.508816 -2.15947,2.753571 -3.53627,3.734301 -1.37679,0.98073 -2.98931,1.471088 -4.83761,1.471088 z m 3.67772,-5.48829 c 0.90529,0 1.81999,-0.414918 2.74414,-1.244767 0.92415,-0.829849 1.55596,-1.980303 1.89544,-3.451399 v -0.282901 l 2.77244,-12.956892 c -0.33949,-1.320213 -1.11274,-1.98031 -2.3198,-1.98031 -1.50881,0 -2.86673,0.876986 -4.07378,2.630984 -1.20705,1.753998 -2.15005,3.866309 -2.82901,6.336995 -0.67897,2.470686 -1.01845,4.649006 -1.01845,6.535026 0,1.886019 0.27347,3.093054 0.82041,3.62114 0.54695,0.528085 1.21648,0.792124 2.00861,0.792124 z m 25.68746,5.48829 c -1.81058,0 -3.33824,-0.348908 -4.58301,-1.046736 -1.24477,-0.697827 -2.16891,-1.603103 -2.77243,-2.715855 -0.60353,-1.112751 -0.90529,-2.272636 -0.90529,-3.479689 0,-1.244773 0.29233,-2.329218 0.877,-3.253368 0.58466,-0.924149 1.29191,-1.593676 2.12176,-2.008601 1.47109,-2.640427 2.75357,-5.309105 3.84746,-8.006114 1.09389,-2.697008 2.13119,-5.610865 3.11192,-8.741658 l 8.37388,-1.131606 c 0.1886,4.828211 0.50922,10.052407 0.96187,15.672746 0.1886,2.263224 0.2829,3.904037 0.2829,4.922487 0,2.300944 -0.58466,4.186936 -1.75399,5.658031 -1.16933,1.471096 -2.61212,2.527251 -4.32839,3.168498 -1.71628,0.641247 -3.46082,0.961865 -5.23368,0.961865 z m -1.81057,-4.469844 c 1.39565,0 2.56497,-0.414919 3.50798,-1.244767 0.94301,-0.829849 1.4145,-2.168903 1.4145,-4.017202 0,-1.131612 -0.11316,-2.715845 -0.33948,-4.752747 -0.3772,-4.300125 -0.62238,-7.185692 -0.73554,-8.656787 -0.90529,2.979911 -2.43294,6.544435 -4.58301,10.693679 0.86757,0.452644 1.30135,1.112742 1.30135,1.980311 0,0.716687 -0.23575,1.357924 -0.70725,1.92373 -0.47151,0.565806 -1.0656,0.848705 -1.78228,0.848705 -0.79213,0 -1.30135,-0.245179 -1.52767,-0.735544 0,1.357934 0.27347,2.35751 0.82041,2.998756 0.54695,0.641247 1.42394,0.961866 2.63099,0.961866 z"
                 inkscape:connector-curvature="0"
                 style="fill:#114e4e" />
            </g>
          </g>
        </g>
      </g>
    </g>
  </g>
</svg>
