<?xml version="1.0" encoding="UTF-8" standalone="no"?>
<!-- Created with Inkscape (http://www.inkscape.org/) -->

<svg
   xmlns:dc="http://purl.org/dc/elements/1.1/"
   xmlns:cc="http://creativecommons.org/ns#"
   xmlns:rdf="http://www.w3.org/1999/02/22-rdf-syntax-ns#"
   xmlns:svg="http://www.w3.org/2000/svg"
   xmlns="http://www.w3.org/2000/svg"
   xmlns:sodipodi="http://sodipodi.sourceforge.net/DTD/sodipodi-0.dtd"
   xmlns:inkscape="http://www.inkscape.org/namespaces/inkscape"
   width="132.29167mm"
   height="132.29167mm"
   viewBox="0 0 468.75002 468.75002"
   id="svg2"
   version="1.1"
   inkscape:version="0.92.3 (3ce5693, 2018-03-11)"
   sodipodi:docname="fondo-dots2.svg">
  <defs
     id="defs4" />
  <sodipodi:namedview
     id="base"
     pagecolor="#ffffff"
     bordercolor="#666666"
     borderopacity="1.0"
     inkscape:pageopacity="0.0"
     inkscape:pageshadow="2"
     inkscape:zoom="0.34726563"
     inkscape:cx="313.46049"
     inkscape:cy="294.13696"
     inkscape:document-units="px"
     inkscape:current-layer="layer1"
     showgrid="false"
     fit-margin-top="0"
     fit-margin-left="0"
     fit-margin-right="0"
     fit-margin-bottom="0"
     inkscape:window-width="858"
     inkscape:window-height="424"
     inkscape:window-x="56"
     inkscape:window-y="285"
     inkscape:window-maximized="0" />
  <metadata
     id="metadata7">
    <rdf:RDF>
      <cc:Work
         rdf:about="">
        <dc:format>image/svg+xml</dc:format>
        <dc:type
           rdf:resource="http://purl.org/dc/dcmitype/StillImage" />
        <dc:title />
      </cc:Work>
    </rdf:RDF>
  </metadata>
  <g
     inkscape:label="Layer 1"
     inkscape:groupmode="layer"
     id="layer1"
     transform="translate(-268.95502,-433.55527)">
    <g
       id="g73"
       style="opacity:0.2">
      <rect
         y="433.55527"
         x="268.95502"
         height="468.75"
         width="468.75"
         id="rect3347"
         style="opacity:1;fill:#850b1a;fill-opacity:1;stroke:none;stroke-width:16;stroke-linecap:round;stroke-linejoin:round;stroke-miterlimit:4;stroke-dasharray:none;stroke-dashoffset:0;stroke-opacity:1" />
      <ellipse
         style="opacity:1;fill:#ffffff;fill-opacity:1;stroke:none;stroke-width:16;stroke-linecap:round;stroke-linejoin:round;stroke-miterlimit:4;stroke-dasharray:none;stroke-dashoffset:0;stroke-opacity:1"
         id="ellipse3351"
         cx="408.86771"
         cy="512.6405"
         rx="21.237347"
         ry="20.15748" />
      <ellipse
         style="opacity:1;fill:#ffffff;fill-opacity:1;stroke:none;stroke-width:16;stroke-linecap:round;stroke-linejoin:round;stroke-miterlimit:4;stroke-dasharray:none;stroke-dashoffset:0;stroke-opacity:1"
         id="ellipse3353"
         cx="292.12482"
         cy="512.6405"
         rx="21.237347"
         ry="20.15748" />
      <ellipse
         style="opacity:1;fill:#ffffff;fill-opacity:1;stroke:none;stroke-width:16;stroke-linecap:round;stroke-linejoin:round;stroke-miterlimit:4;stroke-dasharray:none;stroke-dashoffset:0;stroke-opacity:1"
         id="ellipse3355"
         cx="525.6106"
         cy="512.6405"
         rx="21.237347"
         ry="20.15748" />
      <ellipse
         style="opacity:1;fill:#ffffff;fill-opacity:1;stroke:none;stroke-width:16;stroke-linecap:round;stroke-linejoin:round;stroke-miterlimit:4;stroke-dasharray:none;stroke-dashoffset:0;stroke-opacity:1"
         id="ellipse3357"
         cx="642.35345"
         cy="512.6405"
         rx="21.237347"
         ry="20.15748" />
      <ellipse
         style="opacity:1;fill:#ffffff;fill-opacity:1;stroke:none;stroke-width:16;stroke-linecap:round;stroke-linejoin:round;stroke-miterlimit:4;stroke-dasharray:none;stroke-dashoffset:0;stroke-opacity:1"
         id="ellipse3359"
         cx="349.13879"
         cy="454.09943"
         rx="21.237347"
         ry="20.15748" />
      <ellipse
         style="opacity:1;fill:#ffffff;fill-opacity:1;stroke:none;stroke-width:16;stroke-linecap:round;stroke-linejoin:round;stroke-miterlimit:4;stroke-dasharray:none;stroke-dashoffset:0;stroke-opacity:1"
         id="ellipse3361"
         cx="466.22104"
         cy="454.09943"
         rx="21.237347"
         ry="20.15748" />
      <ellipse
         style="opacity:1;fill:#ffffff;fill-opacity:1;stroke:none;stroke-width:16;stroke-linecap:round;stroke-linejoin:round;stroke-miterlimit:4;stroke-dasharray:none;stroke-dashoffset:0;stroke-opacity:1"
         id="ellipse3363"
         cx="583.30328"
         cy="454.09943"
         rx="21.237347"
         ry="20.15748" />
      <ellipse
         style="opacity:1;fill:#ffffff;fill-opacity:1;stroke:none;stroke-width:16;stroke-linecap:round;stroke-linejoin:round;stroke-miterlimit:4;stroke-dasharray:none;stroke-dashoffset:0;stroke-opacity:1"
         id="ellipse3365"
         cx="700.38556"
         cy="454.09943"
         rx="21.237347"
         ry="20.15748" />
      <ellipse
         style="opacity:1;fill:#ffffff;fill-opacity:1;stroke:none;stroke-width:16;stroke-linecap:round;stroke-linejoin:round;stroke-miterlimit:4;stroke-dasharray:none;stroke-dashoffset:0;stroke-opacity:1"
         id="ellipse3351-0"
         cx="408.43039"
         cy="631.6297"
         rx="21.237347"
         ry="20.15748" />
      <ellipse
         style="opacity:1;fill:#ffffff;fill-opacity:1;stroke:none;stroke-width:16;stroke-linecap:round;stroke-linejoin:round;stroke-miterlimit:4;stroke-dasharray:none;stroke-dashoffset:0;stroke-opacity:1"
         id="ellipse3353-6"
         cx="291.6875"
         cy="631.6297"
         rx="21.237347"
         ry="20.15748" />
      <ellipse
         style="opacity:1;fill:#ffffff;fill-opacity:1;stroke:none;stroke-width:16;stroke-linecap:round;stroke-linejoin:round;stroke-miterlimit:4;stroke-dasharray:none;stroke-dashoffset:0;stroke-opacity:1"
         id="ellipse3355-0"
         cx="525.17328"
         cy="631.6297"
         rx="21.237347"
         ry="20.15748" />
      <ellipse
         style="opacity:1;fill:#ffffff;fill-opacity:1;stroke:none;stroke-width:16;stroke-linecap:round;stroke-linejoin:round;stroke-miterlimit:4;stroke-dasharray:none;stroke-dashoffset:0;stroke-opacity:1"
         id="ellipse3357-1"
         cx="641.91614"
         cy="631.6297"
         rx="21.237347"
         ry="20.15748" />
      <ellipse
         style="opacity:1;fill:#ffffff;fill-opacity:1;stroke:none;stroke-width:16;stroke-linecap:round;stroke-linejoin:round;stroke-miterlimit:4;stroke-dasharray:none;stroke-dashoffset:0;stroke-opacity:1"
         id="ellipse3359-5"
         cx="348.70145"
         cy="573.08862"
         rx="21.237347"
         ry="20.15748" />
      <ellipse
         style="opacity:1;fill:#ffffff;fill-opacity:1;stroke:none;stroke-width:16;stroke-linecap:round;stroke-linejoin:round;stroke-miterlimit:4;stroke-dasharray:none;stroke-dashoffset:0;stroke-opacity:1"
         id="ellipse3361-6"
         cx="465.78372"
         cy="573.08862"
         rx="21.237347"
         ry="20.15748" />
      <ellipse
         style="opacity:1;fill:#ffffff;fill-opacity:1;stroke:none;stroke-width:16;stroke-linecap:round;stroke-linejoin:round;stroke-miterlimit:4;stroke-dasharray:none;stroke-dashoffset:0;stroke-opacity:1"
         id="ellipse3363-8"
         cx="582.86597"
         cy="573.08862"
         rx="21.237347"
         ry="20.15748" />
      <ellipse
         style="opacity:1;fill:#ffffff;fill-opacity:1;stroke:none;stroke-width:16;stroke-linecap:round;stroke-linejoin:round;stroke-miterlimit:4;stroke-dasharray:none;stroke-dashoffset:0;stroke-opacity:1"
         id="ellipse3365-3"
         cx="699.94824"
         cy="573.08862"
         rx="21.237347"
         ry="20.15748" />
      <ellipse
         style="opacity:1;fill:#ffffff;fill-opacity:1;stroke:none;stroke-width:16;stroke-linecap:round;stroke-linejoin:round;stroke-miterlimit:4;stroke-dasharray:none;stroke-dashoffset:0;stroke-opacity:1"
         id="ellipse3351-7"
         cx="408.43039"
         cy="747.69379"
         rx="21.237347"
         ry="20.15748" />
      <ellipse
         style="opacity:1;fill:#ffffff;fill-opacity:1;stroke:none;stroke-width:16;stroke-linecap:round;stroke-linejoin:round;stroke-miterlimit:4;stroke-dasharray:none;stroke-dashoffset:0;stroke-opacity:1"
         id="ellipse3353-68"
         cx="291.6875"
         cy="747.69379"
         rx="21.237347"
         ry="20.15748" />
      <ellipse
         style="opacity:1;fill:#ffffff;fill-opacity:1;stroke:none;stroke-width:16;stroke-linecap:round;stroke-linejoin:round;stroke-miterlimit:4;stroke-dasharray:none;stroke-dashoffset:0;stroke-opacity:1"
         id="ellipse3355-9"
         cx="525.17328"
         cy="747.69379"
         rx="21.237347"
         ry="20.15748" />
      <ellipse
         style="opacity:1;fill:#ffffff;fill-opacity:1;stroke:none;stroke-width:16;stroke-linecap:round;stroke-linejoin:round;stroke-miterlimit:4;stroke-dasharray:none;stroke-dashoffset:0;stroke-opacity:1"
         id="ellipse3357-7"
         cx="641.91608"
         cy="747.69379"
         rx="21.237347"
         ry="20.15748" />
      <ellipse
         style="opacity:1;fill:#ffffff;fill-opacity:1;stroke:none;stroke-width:16;stroke-linecap:round;stroke-linejoin:round;stroke-miterlimit:4;stroke-dasharray:none;stroke-dashoffset:0;stroke-opacity:1"
         id="ellipse3359-6"
         cx="348.70148"
         cy="689.15271"
         rx="21.237347"
         ry="20.15748" />
      <ellipse
         style="opacity:1;fill:#ffffff;fill-opacity:1;stroke:none;stroke-width:16;stroke-linecap:round;stroke-linejoin:round;stroke-miterlimit:4;stroke-dasharray:none;stroke-dashoffset:0;stroke-opacity:1"
         id="ellipse3361-2"
         cx="465.78372"
         cy="689.15271"
         rx="21.237347"
         ry="20.15748" />
      <ellipse
         style="opacity:1;fill:#ffffff;fill-opacity:1;stroke:none;stroke-width:16;stroke-linecap:round;stroke-linejoin:round;stroke-miterlimit:4;stroke-dasharray:none;stroke-dashoffset:0;stroke-opacity:1"
         id="ellipse3363-9"
         cx="582.86591"
         cy="689.15271"
         rx="21.237347"
         ry="20.15748" />
      <ellipse
         style="opacity:1;fill:#ffffff;fill-opacity:1;stroke:none;stroke-width:16;stroke-linecap:round;stroke-linejoin:round;stroke-miterlimit:4;stroke-dasharray:none;stroke-dashoffset:0;stroke-opacity:1"
         id="ellipse3365-4"
         cx="699.94818"
         cy="689.15271"
         rx="21.237347"
         ry="20.15748" />
      <ellipse
         style="opacity:1;fill:#ffffff;fill-opacity:1;stroke:none;stroke-width:16;stroke-linecap:round;stroke-linejoin:round;stroke-miterlimit:4;stroke-dasharray:none;stroke-dashoffset:0;stroke-opacity:1"
         id="ellipse3351-9"
         cx="408.43039"
         cy="865.79413"
         rx="21.237347"
         ry="20.15748" />
      <ellipse
         style="opacity:1;fill:#ffffff;fill-opacity:1;stroke:none;stroke-width:16;stroke-linecap:round;stroke-linejoin:round;stroke-miterlimit:4;stroke-dasharray:none;stroke-dashoffset:0;stroke-opacity:1"
         id="ellipse3353-4"
         cx="291.6875"
         cy="865.79413"
         rx="21.237347"
         ry="20.15748" />
      <ellipse
         style="opacity:1;fill:#ffffff;fill-opacity:1;stroke:none;stroke-width:16;stroke-linecap:round;stroke-linejoin:round;stroke-miterlimit:4;stroke-dasharray:none;stroke-dashoffset:0;stroke-opacity:1"
         id="ellipse3355-4"
         cx="525.17328"
         cy="865.79413"
         rx="21.237347"
         ry="20.15748" />
      <ellipse
         style="opacity:1;fill:#ffffff;fill-opacity:1;stroke:none;stroke-width:16;stroke-linecap:round;stroke-linejoin:round;stroke-miterlimit:4;stroke-dasharray:none;stroke-dashoffset:0;stroke-opacity:1"
         id="ellipse3357-6"
         cx="641.91614"
         cy="865.79413"
         rx="21.237347"
         ry="20.15748" />
      <ellipse
         style="opacity:1;fill:#ffffff;fill-opacity:1;stroke:none;stroke-width:16;stroke-linecap:round;stroke-linejoin:round;stroke-miterlimit:4;stroke-dasharray:none;stroke-dashoffset:0;stroke-opacity:1"
         id="ellipse3359-57"
         cx="348.70148"
         cy="807.25305"
         rx="21.237347"
         ry="20.15748" />
      <ellipse
         style="opacity:1;fill:#ffffff;fill-opacity:1;stroke:none;stroke-width:16;stroke-linecap:round;stroke-linejoin:round;stroke-miterlimit:4;stroke-dasharray:none;stroke-dashoffset:0;stroke-opacity:1"
         id="ellipse3361-21"
         cx="465.78372"
         cy="807.25305"
         rx="21.237347"
         ry="20.15748" />
      <ellipse
         style="opacity:1;fill:#ffffff;fill-opacity:1;stroke:none;stroke-width:16;stroke-linecap:round;stroke-linejoin:round;stroke-miterlimit:4;stroke-dasharray:none;stroke-dashoffset:0;stroke-opacity:1"
         id="ellipse3363-5"
         cx="582.86597"
         cy="807.25305"
         rx="21.237347"
         ry="20.15748" />
      <ellipse
         style="opacity:1;fill:#ffffff;fill-opacity:1;stroke:none;stroke-width:16;stroke-linecap:round;stroke-linejoin:round;stroke-miterlimit:4;stroke-dasharray:none;stroke-dashoffset:0;stroke-opacity:1"
         id="ellipse3365-9"
         cx="699.94824"
         cy="807.25305"
         rx="21.237347"
         ry="20.15748" />
    </g>
    <path
       style="opacity:0.65442404;fill:#ff0025;stroke-width:2.8796401;fill-opacity:1"
       d="m -0.37781703,480.43673 c 0.0386764,-16.39716 0.36628762,-17.35752 3.68382153,-10.79865 7.9665255,15.75008 28.5732845,17.51622 39.6766435,3.40057 13.710015,-17.42945 -7.817462,-41.40778 -28.340575,-31.56707 -4.232084,2.02925 -9.3333149,6.92916 -11.3360685,10.88866 -3.05130457,6.03253 -3.64824933,-2.4476 -3.68382153,-52.33192 l -0.0424511,-59.531 8.41740923,8.41739 c 11.0233999,11.0234 21.1878529,10.93122 32.4130469,-0.29399 6.982997,-6.98298 8.343034,-10.26819 6.854799,-16.55793 -5.077923,-21.46083 -33.592296,-24.65352 -44.3600415,-4.96689 -2.36872911,4.33075 -3.17180168,-8.64977 -3.23764752,-52.33192 l -0.0875661,-58.0912 8.41740922,8.41741 c 11.0233999,11.0234 21.1878529,10.93121 32.4130469,-0.29398 6.982997,-6.983 8.343034,-10.2682 6.854799,-16.55793 -5.077923,-21.46083 -33.592296,-24.65352 -44.3600415,-4.9669 -2.3295922,4.25919 -3.17288959,-21.42997 -3.23764751,-98.62767 L -0.4202681,0.25676297 H 38.843217 78.1067 L 70.519257,6.2250475 C 54.823492,18.571339 64.87958,43.451363 85.565512,43.451363 c 11.467158,0 23.440538,-11.031858 23.440538,-21.5973 0,-4.103487 -3.18069,-10.641579 -7.0682,-14.5290926 L 94.869637,0.25676297 h 53.011553 53.01156 l -7.06821,7.06820743 c -3.88752,3.8875136 -7.06821,10.4256056 -7.06821,14.5290926 0,10.75949 11.96528,21.5973 23.84409,21.5973 20.29727,0 30.14386,-25.033106 14.64271,-37.2263155 l -7.58745,-5.96828453 h 54.16365 54.16365 L 319.97124,6.735953 c -9.56941,10.313554 -9.64875,22.049006 -0.20848,30.843954 11.67668,10.878479 30.5865,6.696876 36.72425,-8.120977 2.88586,-6.967076 2.71282,-9.97833 -0.98429,-17.127726 -2.46716,-4.7709584 -6.1328,-9.3371601 -8.14587,-10.1471153 -2.01307,-0.8099551 20.57794,-1.57494879 50.20223,-1.69998564 l 53.86234,-0.22734009 -7.06819,7.06820743 c -9.00832,9.0083016 -9.00832,20.0498836 0,29.0581866 9.35117,9.351187 22.58663,9.351187 31.9378,0 9.00832,-9.008303 9.00832,-20.049885 0,-29.0581866 l -7.06819,-7.06820743 h 15.70711 15.70714 V 249.34562 498.43448 H 250.10841 -0.4202681 Z M 163.94072,475.61887 c 4.62958,-4.62957 8.41741,-11.20843 8.41741,-14.61971 0,-7.26674 -14.73097,-23.03712 -21.51879,-23.03712 -2.57619,0 -8.48836,1.96732 -13.13817,4.37184 -14.7406,7.62267 -15.08025,29.32819 -0.58204,37.19485 11.63124,6.31104 17.44871,5.46302 26.82159,-3.90986 z m 120.82465,4.04557 c 15.27188,-7.89738 15.01047,-29.56834 -0.45314,-37.5649 -27.33324,-14.13457 -47.93219,23.15383 -21.24544,38.45866 7.73789,4.43769 11.70469,4.2743 21.69858,-0.89376 z m 130.20243,-4.59478 c 2.77166,-3.33828 5.03937,-9.67 5.03937,-14.0705 0,-20.67702 -25.49403,-29.36403 -39.24831,-13.37374 -9.09517,10.57378 -8.60341,17.79857 1.92835,28.33033 7.32652,7.3265 10.26186,8.46312 17.99775,6.96893 5.08392,-0.98195 11.51119,-4.51671 14.28284,-7.85502 z M 97.737033,416.99308 c 5.708787,-4.38307 11.269017,-14.61014 11.269017,-20.72739 0,-8.49862 -13.326315,-18.77609 -24.346044,-18.77609 -13.286319,0 -21.728194,8.30981 -21.728194,21.3883 0,16.73946 21.811257,28.09161 34.805221,18.11518 z m 128.025337,-3.3771 c 14.40291,-14.40289 4.62434,-36.12638 -16.26188,-36.12638 -12.32529,0 -22.74416,10.13135 -22.74416,22.11653 0,9.9112 12.20476,21.07807 23.03712,21.07807 5.61061,0 11.51343,-2.61272 15.96892,-7.06822 z m 123.3851,0.58903 c 20.7083,-18.60483 -2.40459,-47.02455 -27.37521,-33.66068 -8.33987,4.46335 -12.15375,16.46627 -8.23684,25.92257 5.96339,14.39691 23.86965,18.28776 35.61205,7.73811 z m 127.14356,-0.58903 c 3.88752,-3.88751 7.06822,-10.42559 7.06822,-14.52908 0,-10.56545 -11.97337,-21.5973 -23.44053,-21.5973 -20.68595,0 -30.74203,24.88004 -15.04626,37.22632 10.26975,8.07817 22.67478,7.64389 31.41857,-1.09994 z M 164.73854,350.27053 c 9.15723,-8.48665 9.72393,-18.2829 1.65131,-28.54556 -12.51893,-15.91525 -40.10596,-6.07699 -40.10596,14.3028 0,18.93801 23.85492,27.77332 38.45465,14.24276 z m 124.37589,-0.006 c 14.40292,-14.40376 4.62436,-36.12725 -16.26186,-36.12725 -12.32529,0 -22.74416,10.13135 -22.74416,22.11653 0,9.9112 12.20476,21.07807 23.03712,21.07807 5.61062,0 11.51344,-2.61272 15.9689,-7.06822 z m 123.30529,1.09993 c 15.98405,-12.57392 6.61929,-37.22718 -14.14073,-37.22718 -10.83865,0 -24.34606,10.23695 -24.34606,18.45127 0,20.10029 22.71483,31.18129 38.48679,18.77505 z M 101.93785,286.91182 c 3.88751,-3.8875 7.0682,-9.1352 7.0682,-11.66155 0,-7.0407 -7.86791,-20.67314 -13.087392,-22.67605 -15.311783,-5.87568 -32.986846,4.36495 -32.986846,19.11202 0,20.29798 24.406743,29.8249 39.006038,15.22558 z m 124.22794,0.80699 c 13.75905,-12.92597 3.11671,-36.93337 -16.37234,-36.93337 -11.05628,0 -23.03712,11.23204 -23.03712,21.5973 0,18.25833 25.66689,28.24654 39.40946,15.33607 z m 124.73002,0.50195 c 13.44879,-13.44877 3.37189,-37.54012 -15.62006,-37.34374 -21.69051,0.2243 -32.07023,26.95468 -15.0862,38.85075 8.69539,6.09049 23.85266,5.34659 30.70626,-1.50701 z m 125.39522,-1.30894 c 3.88752,-3.8875 7.06822,-10.42559 7.06822,-14.52908 0,-10.09792 -11.98952,-21.5973 -22.51789,-21.5973 -12.32348,0 -23.55635,9.96658 -23.55635,20.9008 0,20.29798 24.40674,29.8249 39.00602,15.22558 z M 164.73854,226.446 c 9.15723,-8.48664 9.72393,-18.28288 1.65131,-28.54555 -12.51893,-15.91524 -40.10596,-6.077 -40.10596,14.30281 0,18.93799 23.85492,27.77332 38.45465,14.24274 z m 124.37589,-0.007 c 14.40292,-14.40289 4.62436,-36.12638 -16.26186,-36.12638 -12.32529,0 -22.74416,10.13137 -22.74416,22.11654 0,9.91119 12.20476,21.07806 23.03712,21.07806 5.61062,0 11.51344,-2.61272 15.9689,-7.0682 z m 123.30529,1.09992 c 15.98405,-12.57304 6.61929,-37.2263 -14.14073,-37.2263 -10.83865,0 -24.34606,10.23694 -24.34606,18.45127 0,20.10028 22.71483,31.18128 38.48679,18.77505 z m -310.48187,-64.4516 c 3.88751,-3.88752 7.0682,-9.13522 7.0682,-11.66157 0,-7.0407 -7.86791,-20.67314 -13.087392,-22.67605 -15.311783,-5.87568 -32.986846,4.36495 -32.986846,19.11202 0,20.29797 24.406743,29.82489 39.006038,15.2256 z m 124.22794,0.80696 c 13.75905,-12.92596 3.11671,-36.93336 -16.37234,-36.93336 -11.05628,0 -23.03712,11.23204 -23.03712,21.5973 0,18.25834 25.66689,28.24653 39.40946,15.33606 z m 124.73002,0.50196 c 13.44879,-13.44877 3.37189,-37.54012 -15.62006,-37.34374 -21.69051,0.2243 -32.07023,26.95468 -15.0862,38.85074 8.69539,6.0905 23.85266,5.34661 30.70626,-1.507 z m 125.39522,-1.30892 c 9.00832,-9.00831 9.00832,-20.04989 0,-29.05819 -20.52633,-20.52633 -52.59757,8.32927 -32.74479,29.46161 8.57868,9.13157 23.39233,8.94906 32.74479,-0.40342 z M 35.122193,103.60626 c 6.846211,-3.11934 13.411419,-13.412514 13.411419,-21.026907 0,-2.087592 -2.685728,-7.209971 -5.968284,-11.383065 -7.61456,-9.680344 -25.540362,-10.634478 -34.3466761,-1.828165 -8.57458884,8.574589 -7.6790663,23.988645 1.8281641,31.467037 8.552602,6.72748 14.861812,7.42471 25.075377,2.7711 z M 167.31876,97.933086 c 11.53951,-14.119062 1.18257,-34.324243 -17.5942,-34.324243 -21.24444,0 -30.78767,21.711184 -16.03001,36.468837 6.17419,6.1742 9.1771,7.1279 17.99775,5.71597 5.8229,-0.93207 12.85481,-4.46933 15.62646,-7.860564 z m 121.79567,1.802151 c 14.88521,-14.885196 5.61887,-36.126394 -15.75989,-36.126394 -8.78805,0 -12.64021,1.691653 -17.27784,7.587445 -6.81195,8.659985 -7.26749,12.327241 -2.76013,22.219815 6.40357,14.054307 24.81302,17.303987 35.79786,6.319134 z m 124.01299,0.324853 c 5.59955,-4.816527 7.83962,-9.470276 7.83962,-16.286764 0,-25.470657 -39.80774,-27.418365 -45.76548,-2.239208 -1.48823,6.28973 -0.12815,9.574933 6.85481,16.55793 10.52903,10.529042 20.39202,11.153762 31.07105,1.968042 z"
       id="path4557"
       inkscape:connector-curvature="0"
       transform="matrix(0.93749998,0,0,0.93749998,268.95502,433.55527)" />
  </g>
</svg>
